<svg width="194" height="74" viewBox="0 0 194 74" fill="none" xmlns="http://www.w3.org/2000/svg">
<path fill-rule="evenodd" clip-rule="evenodd" d="M0 40.4695C0 40.1419 0.0568156 39.8283 0.172279 39.527C0.286827 39.2232 0.449026 38.9598 0.663459 38.7335C0.875143 38.5079 1.13265 38.3276 1.43688 38.1959C1.74112 38.0642 2.07652 38 2.44307 38C3.14777 38 3.66735 38.1078 4 38.3276L3.84422 38.8759H3.7929C3.64903 38.7367 3.50699 38.6207 3.36495 38.5351C3.22199 38.4519 3.07262 38.3844 2.91959 38.3424C2.76747 38.3005 2.61168 38.2782 2.45498 38.2782C2.1425 38.2782 1.84651 38.3597 1.57617 38.5318C1.30493 38.7038 1.08683 38.9483 0.920962 39.2669C0.756014 39.5887 0.672623 39.9616 0.672623 40.3872V40.4695C0.68362 40.8589 0.73677 41.1898 0.836655 41.4615C0.935624 41.7364 1.07125 41.9611 1.24261 42.1381C1.41581 42.3168 1.60458 42.4485 1.81535 42.5275C2.02428 42.6065 2.24513 42.6477 2.47514 42.6477C2.7354 42.6477 2.99015 42.6032 3.24124 42.5069C3.49233 42.4114 3.71042 42.283 3.89553 42.1176L3.84422 42.558C3.6921 42.6526 3.53081 42.7333 3.36312 42.8024C3.1945 42.8732 3.02864 42.9202 2.85544 42.9523C2.68866 42.9844 2.52463 43 2.36518 43C2.05269 43 1.75487 42.9407 1.46346 42.823C1.17663 42.7045 0.920962 42.5341 0.699198 42.3069C0.477434 42.0822 0.305155 41.8171 0.184192 41.5084C0.0595647 41.1948 0 40.849 0 40.4695Z" fill="#FFFFFE"/>
<path fill-rule="evenodd" clip-rule="evenodd" d="M5.76105 42.223C5.76105 42.5272 5.84835 42.8505 6.01735 43.1928C6.18858 43.5322 6.5042 43.7176 6.96307 43.7442C7.32457 43.7442 7.62115 43.5988 7.84835 43.3021C8.07443 43.0102 8.20425 42.5852 8.23559 42.0338C8.23559 41.6953 8.19194 41.3967 8.10576 41.1343C8.01735 40.8766 7.88528 40.6741 7.70621 40.5315C7.5249 40.3898 7.30218 40.3176 7.03246 40.3176C6.64074 40.3176 6.32848 40.4925 6.09793 40.8415C5.86961 41.1923 5.75322 41.5992 5.75322 42.0518C5.75322 42.0908 5.75546 42.1469 5.76105 42.223ZM5 42.1545C5 41.7381 5.08506 41.3672 5.25741 41.0383C5.42753 40.7112 5.67375 40.4573 5.99384 40.2729C6.31393 40.0894 6.68103 40 7.09401 40C7.57527 40 7.96027 40.1246 8.24342 40.3699C8.53106 40.619 8.7258 40.8985 8.8366 41.2142C8.94404 41.527 9 41.7999 9 42.0338C9 42.2505 8.96083 42.4702 8.88584 42.6965C8.81421 42.9189 8.69894 43.1291 8.53553 43.3297C8.37549 43.5303 8.16732 43.6938 7.90431 43.8203C7.64913 43.943 7.35255 44 7.02015 44C6.99888 44 6.98545 44 6.96307 43.9981H6.90375C6.51539 43.9981 6.17739 43.9163 5.88976 43.7509C5.59765 43.5893 5.37941 43.3687 5.22496 43.0939C5.07499 42.8115 5 42.4958 5 42.1545Z" fill="#FFFFFE"/>
<path fill-rule="evenodd" clip-rule="evenodd" d="M9 44V40.0628C9.08418 40.0942 9.17032 40.1094 9.25646 40.1094C9.34358 40.1094 9.4444 40.0942 9.55795 40.0628V40.6985C9.61276 40.5891 9.69303 40.4797 9.79483 40.3702C9.89663 40.2655 10.0131 40.1761 10.1472 40.1037C10.2823 40.0333 10.4164 40 10.5544 40C10.7649 40 10.9352 40.0219 11.0625 40.0609C11.1917 40.1018 11.3042 40.1799 11.4011 40.2931C11.5 40.4092 11.6038 40.5834 11.7202 40.8251C11.7907 40.6453 11.8847 40.492 11.9992 40.3664C12.1186 40.2379 12.2488 40.1466 12.3917 40.0876C12.5307 40.0295 12.6776 40 12.8303 40C13.0662 40 13.2727 40.059 13.4489 40.1761C13.628 40.2931 13.7612 40.4511 13.8571 40.6395C13.9511 40.8289 14 41.024 14 41.2286C14 41.2753 13.998 41.3086 13.9961 41.3343V44C13.9168 43.9705 13.8189 43.9534 13.7132 43.9534C13.6055 43.9534 13.4969 43.9705 13.3843 44V41.3961C13.3843 41.1135 13.307 40.887 13.1494 40.7157C12.9928 40.5463 12.8087 40.4606 12.5944 40.4606C12.4622 40.4606 12.3399 40.4996 12.2204 40.5758C12.102 40.65 12.0031 40.7709 11.9229 40.9327C11.8377 41.0945 11.7927 41.2915 11.778 41.5218V44C11.6938 43.9705 11.6008 43.9534 11.5 43.9534C11.3962 43.9534 11.3042 43.9705 11.222 44V41.3961C11.222 41.2172 11.1809 41.0573 11.1045 40.9203C11.0272 40.7842 10.9225 40.6767 10.7942 40.6005C10.668 40.5244 10.5319 40.4835 10.3958 40.4835C10.1854 40.4835 10.0082 40.5701 9.85944 40.7452C9.70673 40.9165 9.62451 41.1763 9.61081 41.5218V44C9.5276 43.9705 9.43168 43.9534 9.32302 43.9534C9.22318 43.9534 9.11159 43.9705 9 44Z" fill="#FFFFFE"/>
<path fill-rule="evenodd" clip-rule="evenodd" d="M14.056 43V39.5979C14.17 39.625 14.282 39.6382 14.391 39.6382C14.496 39.6382 14.595 39.625 14.681 39.5979V43C14.595 42.9745 14.496 42.9597 14.391 42.9597C14.282 42.9597 14.17 42.9745 14.056 43ZM14 38.3914C14 38.2648 14.037 38.1686 14.114 38.0979C14.186 38.0321 14.279 38 14.382 38C14.493 38 14.589 38.0354 14.67 38.1061C14.751 38.1735 14.792 38.2714 14.792 38.3914C14.78 38.5189 14.734 38.6135 14.658 38.6809C14.581 38.7484 14.49 38.7821 14.391 38.7821C14.285 38.7821 14.196 38.7451 14.116 38.6743C14.037 38.6036 14 38.509 14 38.3914Z" fill="#FFFFFE"/>
<path fill-rule="evenodd" clip-rule="evenodd" d="M17.0724 41.2263C17.0724 40.8242 17.2274 40.5221 17.5388 40.3134C17.8527 40.1057 18.2274 40 18.6667 40C19.0413 40 19.3928 40.0755 19.708 40.22L19.4884 40.8487H19.3424C19.3075 40.7354 19.2481 40.642 19.1589 40.5646C19.0762 40.4871 18.9767 40.4277 18.863 40.3871C18.7506 40.3484 18.6318 40.3304 18.509 40.3304C18.3256 40.3304 18.1576 40.3767 18.0039 40.4645C17.8553 40.5551 17.7636 40.6844 17.7339 40.8487C17.7171 40.9129 17.7171 40.9554 17.7171 40.9828C17.7171 41.1376 17.7791 41.265 17.9083 41.3613C18.0362 41.4586 18.2132 41.5398 18.4289 41.6059C18.6434 41.6729 18.8488 41.7371 19.0517 41.7928C19.3682 41.8957 19.6059 42.0307 19.7636 42.2016C19.9199 42.3715 20 42.5537 20 42.7586C20 42.9615 19.9238 43.157 19.7752 43.3524C19.6253 43.544 19.4199 43.697 19.1589 43.8225C18.9031 43.9367 18.6176 44 18.3191 44C17.686 44 17.2429 43.8905 17 43.6856L17.2196 43.1164H17.3643C17.6253 43.5072 17.9574 43.697 18.3475 43.697C18.509 43.697 18.6628 43.6677 18.8036 43.5978C18.9444 43.5289 19.0556 43.4411 19.1421 43.325C19.2287 43.2136 19.2674 43.1013 19.2674 42.9908C19.2519 42.8454 19.2028 42.7293 19.1189 42.6368C19.0362 42.5461 18.9289 42.4763 18.7946 42.4262C18.6641 42.3753 18.4987 42.3252 18.3023 42.2827C18.1098 42.2384 17.9664 42.2016 17.8786 42.1685C17.6292 42.1024 17.4341 41.992 17.2894 41.84C17.1447 41.6927 17.0724 41.4878 17.0724 41.2263Z" fill="#FFFFFE"/>
<path fill-rule="evenodd" clip-rule="evenodd" d="M19.055 43V39.5979C19.168 39.625 19.28 39.6382 19.389 39.6382C19.496 39.6382 19.595 39.625 19.679 39.5979V43C19.595 42.9745 19.496 42.9597 19.389 42.9597C19.28 42.9597 19.168 42.9745 19.055 43ZM19 38.3914C19 38.2648 19.036 38.1686 19.112 38.0979C19.188 38.0321 19.276 38 19.38 38C19.492 38 19.589 38.0354 19.669 38.1061C19.75 38.1735 19.793 38.2714 19.793 38.3914C19.778 38.5189 19.733 38.6135 19.655 38.6809C19.578 38.7484 19.488 38.7821 19.389 38.7821C19.283 38.7821 19.195 38.7451 19.117 38.6743C19.036 38.6036 19 38.509 19 38.3914Z" fill="#FFFFFE"/>
<path fill-rule="evenodd" clip-rule="evenodd" d="M21.0151 39.1851L22.0952 38.174C22.2095 38.0572 22.3473 38 22.5143 38C22.5972 38 22.67 38.0177 22.7339 38.0521C22.7955 38.0883 22.8269 38.1378 22.8269 38.1967C22.8269 38.2967 22.7317 38.4017 22.5412 38.5119L21.3356 39.1851H21.0151ZM20.7608 41.4291C20.7608 41.6981 20.8459 41.9839 21.0185 42.2856C21.1877 42.5865 21.5081 42.7504 21.9697 42.7748C22.3294 42.7748 22.6252 42.6453 22.8504 42.3831C23.079 42.1251 23.2101 41.7494 23.2392 41.2619C23.2392 40.9627 23.1955 40.6988 23.1081 40.4668C23.0196 40.239 22.8874 40.06 22.7092 39.9339C22.5266 39.8087 22.3025 39.7448 22.0336 39.7448C21.6392 39.7448 21.3289 39.8995 21.0992 40.2079C20.8683 40.5181 20.7529 40.8778 20.7529 41.2779C20.7529 41.3123 20.7563 41.3619 20.7608 41.4291ZM20 41.3686C20 41.0005 20.084 40.6736 20.2577 40.3819C20.4303 40.0928 20.6745 39.8675 20.9961 39.7053C21.3176 39.5431 21.684 39.4641 22.0952 39.4641C22.5782 39.4641 22.9613 39.5742 23.2471 39.7911C23.535 40.0104 23.7311 40.2584 23.8398 40.5374C23.9496 40.8131 24 41.0551 24 41.2619C24 41.4535 23.9664 41.6477 23.8924 41.8477C23.8162 42.0444 23.7008 42.2301 23.5395 42.4075C23.3804 42.5848 23.1697 42.7294 22.9087 42.8411C22.651 42.9496 22.3552 43 22.0213 43C22.0011 43 21.9866 43 21.9697 42.9983H21.9048C21.516 42.9983 21.1787 42.926 20.8908 42.7798C20.6028 42.6369 20.381 42.4419 20.2286 42.199C20.0728 41.9494 20 41.6704 20 41.3686Z" fill="#FFFFFE"/>
<path fill-rule="evenodd" clip-rule="evenodd" d="M24 44V40.0628C24.0875 40.0942 24.1922 40.1094 24.3173 40.1094C24.4414 40.1094 24.5492 40.0942 24.6346 40.0628V40.7604C24.718 40.6414 24.781 40.5539 24.8308 40.4873C24.8786 40.4235 24.9508 40.355 25.0414 40.275C25.1298 40.1932 25.2478 40.1285 25.3831 40.0799C25.5163 40.0238 25.6729 40 25.8447 40C26.0512 40 26.2424 40.0552 26.4173 40.1694C26.5932 40.2788 26.7336 40.4606 26.8383 40.71C26.9451 40.9574 27 41.2753 27 41.6502V44C26.9146 43.9705 26.8231 43.9534 26.7254 43.9534C26.6308 43.9534 26.5119 43.9705 26.3654 44V41.6502C26.3654 41.2838 26.2841 41.0002 26.1234 40.7994C25.9617 40.6005 25.7654 40.5015 25.5407 40.5015C25.3871 40.5015 25.2397 40.5482 25.1003 40.6472C24.959 40.7452 24.8502 40.8898 24.7627 41.084C24.6783 41.281 24.6346 41.5132 24.6346 41.7787V44C24.5227 43.9705 24.4139 43.9534 24.3173 43.9534C24.2237 43.9534 24.1169 43.9705 24 44Z" fill="#FFFFFE"/>
<path fill-rule="evenodd" clip-rule="evenodd" d="M31 43V38H31.3197L34.5722 41.8073V38C34.6258 38.0281 34.6972 38.04 34.7856 38.04C34.8749 38.04 34.9455 38.0281 35 38V43H34.733L31.4269 39.0777V43C31.3724 42.9736 31.3084 42.9583 31.2341 42.9583C31.158 42.9583 31.0799 42.9736 31 43Z" fill="#FFFFFE"/>
<path fill-rule="evenodd" clip-rule="evenodd" d="M38.0164 43.0512V41.9738C37.667 42.0071 37.3869 42.0672 37.1819 42.1415C36.975 42.2139 36.8248 42.3148 36.7247 42.4358C36.6304 42.5635 36.5813 42.714 36.5813 42.8988C36.5813 42.9578 36.5881 43.0312 36.5987 43.1141C36.6179 43.2332 36.6862 43.3456 36.8104 43.4456C36.9355 43.5466 37.077 43.5961 37.231 43.5961C37.5255 43.5961 37.7844 43.4161 38.0164 43.0512ZM36 42.9864C36 42.8131 36.0279 42.653 36.0818 42.5158C36.1405 42.3777 36.2329 42.2567 36.3619 42.1548C36.4899 42.05 36.6603 41.9681 36.872 41.9071L37.7449 41.7156C37.8441 41.6947 37.9182 41.6413 37.9663 41.5613C38.0164 41.4794 38.0395 41.3822 38.0395 41.267C38.0395 41.126 38.0067 40.9783 37.9365 40.8297C37.8681 40.6849 37.769 40.5658 37.6391 40.4668C37.5149 40.3687 37.3657 40.3182 37.1963 40.3182C37.0414 40.3182 36.9038 40.3668 36.7786 40.4534C36.6554 40.543 36.5226 40.6887 36.3792 40.8907H36.2724V40.4468C36.4042 40.3534 36.5245 40.2791 36.6266 40.2172C36.7295 40.1581 36.8499 40.1115 36.9885 40.0667C37.1232 40.0238 37.2676 40 37.4187 40C37.8287 40 38.1338 40.1076 38.3263 40.3144C38.5207 40.5249 38.616 40.8669 38.616 41.3356V43.3694C38.616 43.5199 38.6776 43.5961 38.8037 43.5961C38.846 43.5961 38.9143 43.5837 39 43.5608V43.7485C38.8884 43.8571 38.7546 43.9085 38.5977 43.9085C38.4629 43.9085 38.334 43.8647 38.2204 43.7771C38.1059 43.6914 38.0356 43.5742 38.0164 43.4342C37.6747 43.8104 37.3147 44 36.9471 44C36.6795 44 36.4581 43.9019 36.2733 43.7047C36.0866 43.5075 36 43.2693 36 42.9864Z" fill="#FFFFFE"/>
<path fill-rule="evenodd" clip-rule="evenodd" d="M38 42.047C38 41.6347 38.0679 41.2733 38.2097 40.9722C38.3525 40.6673 38.5702 40.4276 38.8569 40.257C39.1465 40.0844 39.502 40 39.9224 40C40.1571 40 40.3429 40.0249 40.4787 40.0748C40.6195 40.1218 40.7913 40.2061 41 40.3202L40.8881 40.8974H40.7743C40.6575 40.6989 40.5246 40.5542 40.3708 40.4612C40.221 40.3691 40.0313 40.3202 39.8096 40.3202C39.5749 40.3202 39.3722 40.4008 39.1994 40.5561C39.0306 40.7133 38.8988 40.9195 38.8109 41.1764C38.724 41.4286 38.6791 41.7009 38.6791 41.9875C38.6791 42.2752 38.727 42.5455 38.8169 42.7996C38.9088 43.0527 39.0486 43.255 39.2374 43.4123C39.4291 43.5695 39.6528 43.65 39.9224 43.65C40.1381 43.65 40.3229 43.6069 40.4787 43.5206C40.6365 43.4382 40.7903 43.3106 40.9441 43.1352L41 43.1965L40.9441 43.5849C40.7913 43.7191 40.6145 43.8245 40.4158 43.8936C40.217 43.9645 40.0113 44 39.8066 44C39.5 44 39.2054 43.9252 38.9288 43.7795C38.6491 43.6309 38.4234 43.4084 38.2527 43.1122C38.0839 42.8169 38 42.465 38 42.047Z" fill="#FFFFFE"/>
<path fill-rule="evenodd" clip-rule="evenodd" d="M42.056 43V39.5979C42.169 39.625 42.281 39.6382 42.39 39.6382C42.499 39.6382 42.594 39.625 42.679 39.5979V43C42.594 42.9745 42.499 42.9597 42.39 42.9597C42.281 42.9597 42.169 42.9745 42.056 43ZM42 38.3914C42 38.2648 42.037 38.1686 42.116 38.0979C42.187 38.0321 42.279 38 42.381 38C42.494 38 42.59 38.0354 42.672 38.1061C42.751 38.1735 42.796 38.2714 42.796 38.3914C42.78 38.5189 42.735 38.6135 42.658 38.6809C42.581 38.7484 42.493 38.7821 42.39 38.7821C42.286 38.7821 42.196 38.7451 42.117 38.6743C42.039 38.6036 42 38.509 42 38.3914Z" fill="#FFFFFE"/>
<path fill-rule="evenodd" clip-rule="evenodd" d="M43.7637 42.223C43.7637 42.5272 43.8466 42.8505 44.0168 43.1928C44.1859 43.5322 44.5062 43.7176 44.9675 43.7442C45.3247 43.7442 45.6193 43.5988 45.8499 43.3021C46.0761 43.0102 46.206 42.5852 46.2352 42.0338C46.2352 41.6953 46.1937 41.3967 46.1075 41.1343C46.019 40.8766 45.8858 40.6741 45.7044 40.5315C45.5252 40.3898 45.3001 40.3176 45.0336 40.3176C44.6405 40.3176 44.327 40.4925 44.0985 40.8415C43.869 41.1923 43.7514 41.5992 43.7514 42.0537C43.7514 42.0908 43.7548 42.1469 43.7637 42.223ZM43 42.1545C43 41.7381 43.084 41.3672 43.2587 41.0383C43.4278 40.7112 43.6741 40.4573 43.9944 40.2729C44.3158 40.0894 44.6797 40 45.0929 40C45.5767 40 45.9608 40.1246 46.2464 40.3699C46.5319 40.619 46.7279 40.8985 46.8387 41.2142C46.9474 41.527 47 41.7999 47 42.0338C47 42.2505 46.9608 42.4702 46.8869 42.6965C46.8141 42.9189 46.6976 43.1291 46.5375 43.3297C46.3763 43.5303 46.168 43.6938 45.9093 43.8203C45.6484 43.943 45.3516 44 45.0179 44C45 44 44.9832 44 44.9675 43.9981H44.9037C44.5162 43.9981 44.1758 43.9163 43.888 43.7509C43.5969 43.5893 43.3796 43.3687 43.2273 43.0939C43.0739 42.8115 43 42.4958 43 42.1545Z" fill="#FFFFFE"/>
<path fill-rule="evenodd" clip-rule="evenodd" d="M47 44V40.0628C47.0895 40.0942 47.1933 40.1094 47.3174 40.1094C47.4446 40.1094 47.5493 40.0942 47.6368 40.0628V40.7604C47.7182 40.6414 47.7833 40.5539 47.8301 40.4873C47.8789 40.4235 47.9502 40.355 48.0417 40.275C48.1353 40.1932 48.2503 40.1285 48.3815 40.0799C48.5188 40.0238 48.6734 40 48.8464 40C49.0529 40 49.2421 40.0552 49.4171 40.1694C49.5951 40.2788 49.7345 40.4606 49.8413 40.71C49.9471 40.9574 50 41.2753 50 41.6502V44C49.9125 43.9705 49.826 43.9534 49.7294 43.9534C49.6338 43.9534 49.5127 43.9705 49.3662 44V41.6502C49.3662 41.2838 49.2859 41.0002 49.1251 40.7994C48.9624 40.6005 48.7681 40.5015 48.5422 40.5015C48.3866 40.5015 48.2411 40.5482 48.0997 40.6472C47.9624 40.7452 47.8484 40.8898 47.765 41.084C47.6796 41.281 47.6368 41.5132 47.6368 41.7787V44C47.5219 43.9705 47.414 43.9534 47.3174 43.9534C47.2238 43.9534 47.118 43.9705 47 44Z" fill="#FFFFFE"/>
<path fill-rule="evenodd" clip-rule="evenodd" d="M53.0173 43.0512V41.9738C52.667 42.0071 52.3879 42.0672 52.1819 42.1415C51.9759 42.2139 51.8229 42.3148 51.7257 42.4358C51.6304 42.5635 51.5813 42.714 51.5813 42.8988C51.5813 42.9578 51.5881 43.0312 51.5996 43.1141C51.616 43.2332 51.6882 43.3456 51.8114 43.4456C51.9336 43.5466 52.0751 43.5961 52.2329 43.5961C52.5265 43.5961 52.7892 43.4161 53.0173 43.0512ZM51 42.9864C51 42.8131 51.0269 42.653 51.0837 42.5158C51.1386 42.3777 51.2329 42.2567 51.3619 42.1548C51.4899 42.05 51.6593 41.9681 51.873 41.9071L52.7459 41.7156C52.8431 41.6947 52.9172 41.6413 52.9682 41.5613C53.0173 41.4794 53.0433 41.3822 53.0433 41.267C53.0433 41.126 53.0048 40.9783 52.9365 40.8297C52.8701 40.6849 52.7709 40.5658 52.64 40.4668C52.5149 40.3687 52.3667 40.3182 52.1983 40.3182C52.0414 40.3182 51.9009 40.3668 51.7796 40.4534C51.6554 40.543 51.5217 40.6887 51.3802 40.8907H51.2724V40.4468C51.4052 40.3534 51.5245 40.2791 51.6295 40.2172C51.7324 40.1581 51.8508 40.1115 51.9885 40.0667C52.1251 40.0238 52.2676 40 52.4187 40C52.8306 40 53.1347 40.1076 53.3292 40.3144C53.5207 40.5249 53.6179 40.8669 53.6179 41.3356V43.3694C53.6179 43.5199 53.6814 43.5961 53.8056 43.5961C53.8479 43.5961 53.9134 43.5837 54 43.5608V43.7485C53.8884 43.8571 53.7555 43.9085 53.6015 43.9085C53.462 43.9085 53.3359 43.8647 53.2194 43.7771C53.1049 43.6914 53.0385 43.5742 53.0173 43.4342C52.6747 43.8104 52.3176 44 51.9451 44C51.6785 44 51.4552 43.9019 51.2733 43.7047C51.0885 43.5075 51 43.2693 51 42.9864Z" fill="#FFFFFE"/>
<path fill-rule="evenodd" clip-rule="evenodd" d="M55 44V38C55.115 38.0303 55.22 38.0486 55.312 38.0486C55.405 38.0486 55.512 38.0303 55.626 38V44C55.539 43.9716 55.444 43.955 55.334 43.955C55.224 43.955 55.115 43.9716 55 44Z" fill="#FFFFFE"/>
<path fill-rule="evenodd" clip-rule="evenodd" d="M5.62025 49.1449C5.62025 49.6842 5.71146 50.0641 5.89024 50.2902C6.07267 50.5117 6.25692 50.6275 6.44938 50.6275C6.46671 50.6293 6.49133 50.6312 6.52508 50.6312C6.68836 50.6312 6.83977 50.5673 6.97659 50.4514C7.11432 50.3282 7.2256 50.1512 7.30952 49.9177C7.38978 49.6842 7.43083 49.4034 7.43083 49.0819C7.43083 48.6704 7.37154 48.3035 7.25114 47.9699C7.13165 47.6372 6.90453 47.4667 6.56339 47.4667C6.55336 47.4667 6.54059 47.4667 6.53147 47.4704C6.52052 47.4704 6.51231 47.476 6.50046 47.476C6.13834 47.5001 5.90301 47.6771 5.78899 48.0079C5.67589 48.3359 5.62025 48.7158 5.62025 49.1449ZM5 49.2663C5 48.928 5.03192 48.6241 5.09395 48.3554C5.15689 48.0913 5.24901 47.8633 5.3758 47.6734C5.49985 47.4853 5.65309 47.3425 5.83095 47.248C6.01338 47.1507 6.21861 47.1035 6.44938 47.1035C6.59623 47.1035 6.74582 47.1378 6.90179 47.2082C7.05777 47.2768 7.18638 47.3657 7.2858 47.476C7.38157 47.5816 7.43083 47.6845 7.43083 47.7818V45C7.53664 45.0315 7.63059 45.0454 7.71724 45.0454C7.80389 45.0454 7.8951 45.0315 8 45V50.9388C7.92247 50.9055 7.8349 50.8916 7.73457 50.8916C7.63424 50.8916 7.53664 50.9055 7.43083 50.9388V50.2541C7.27486 50.5117 7.10611 50.7016 6.92004 50.8239C6.73214 50.9416 6.54059 51 6.34539 51C6.11462 51 5.89754 50.924 5.68957 50.772C5.48161 50.6182 5.31377 50.406 5.18881 50.1401C5.06294 49.8741 5 49.585 5 49.2663Z" fill="#FFFFFE"/>
<path fill-rule="evenodd" clip-rule="evenodd" d="M11.4342 48.6502C11.4342 48.2734 11.3702 47.9555 11.2414 47.6966C11.1135 47.4473 10.8903 47.3217 10.5706 47.3217C10.3807 47.3217 10.2195 47.3845 10.0811 47.5215C9.94275 47.6576 9.83492 47.8327 9.76145 48.0421C9.68607 48.2524 9.6479 48.4571 9.6479 48.6502H11.4342ZM9 49.0966C9 48.6483 9.0687 48.2677 9.20515 47.9498C9.34447 47.6338 9.53053 47.3959 9.76813 47.2417C10.0038 47.0799 10.271 47 10.5706 47C10.9103 47 11.1918 47.0923 11.4065 47.2788C11.6221 47.4606 11.7739 47.6814 11.8635 47.9422C11.9552 48.2001 12 48.4571 12 48.7007C12 48.8158 11.9924 48.9015 11.9752 48.97H9.6479C9.6479 49.306 9.68607 49.5886 9.75954 49.8208C9.83302 50.054 9.95802 50.2339 10.1355 50.3681C10.3139 50.4927 10.5477 50.5575 10.8406 50.5575C11.0315 50.5575 11.2156 50.5127 11.3893 50.4233C11.5639 50.331 11.7052 50.2101 11.8139 50.0521L11.8674 50.4927C11.6908 50.626 11.563 50.7231 11.4819 50.7783C11.3989 50.8382 11.2853 50.8848 11.1412 50.9296C10.9971 50.9791 10.8254 51 10.6221 51C10.2672 50.9829 9.97233 50.8848 9.72996 50.7059C9.49237 50.5299 9.31489 50.2986 9.19847 50.0178C9.08397 49.7361 9.01813 49.4268 9 49.0966Z" fill="#FFFFFE"/>
<path fill-rule="evenodd" clip-rule="evenodd" d="M15.2671 47.6974H16.5368L15.9028 45.9552L15.2671 47.6974ZM14 50L15.9501 45H16.0963L18 50C17.9776 50 17.9432 49.995 17.8942 49.9924C17.8443 49.9874 17.7875 49.9823 17.7239 49.9823C17.6619 49.9739 17.6103 49.9705 17.569 49.9705C17.4761 49.9705 17.3944 49.9823 17.317 50L16.6348 48.0306H15.1217L14.4869 50C14.4422 49.9823 14.3888 49.9705 14.3277 49.9705C14.3028 49.9705 14.2624 49.9739 14.2151 49.9823C14.1643 49.9823 14.1222 49.9874 14.0852 49.9924C14.0499 49.995 14.0206 50 14 50Z" fill="#FFFFFE"/>
<path fill-rule="evenodd" clip-rule="evenodd" d="M19 49.0518C19 48.6374 19.0709 48.2758 19.2097 47.9746C19.3524 47.6657 19.5691 47.4297 19.8566 47.2552C20.1441 47.0844 20.5025 47 20.9238 47C21.1554 47 21.3411 47.0249 21.4779 47.0729C21.6196 47.1218 21.7933 47.2062 22 47.3242L21.8872 47.8959H21.7704C21.6556 47.7012 21.5238 47.5564 21.371 47.4633C21.2203 47.3693 21.0336 47.3242 20.809 47.3242C20.5724 47.3242 20.3707 47.4029 20.2 47.5564C20.0303 47.7156 19.8995 47.918 19.8106 48.1731C19.7228 48.4302 19.6789 48.7017 19.6789 48.9866C19.6789 49.2763 19.7238 49.5468 19.8176 49.8029C19.9085 50.0523 20.0493 50.2585 20.2369 50.4139C20.4266 50.5751 20.6542 50.6499 20.9238 50.6499C21.1404 50.6499 21.3231 50.6086 21.4779 50.5242C21.6366 50.4379 21.7903 50.3103 21.9431 50.1367L22 50.2L21.9431 50.5866C21.7933 50.7209 21.6156 50.8225 21.415 50.8935C21.2153 50.9645 21.0116 51 20.803 51C20.4985 51 20.206 50.9271 19.9295 50.7832C19.6489 50.6307 19.4243 50.4082 19.2556 50.1156C19.0849 49.8221 19 49.4681 19 49.0518Z" fill="#FFFFFE"/>
<path fill-rule="evenodd" clip-rule="evenodd" d="M23 51V47.0714C23.0494 47.107 23.1058 47.1205 23.1658 47.1205C23.2269 47.1205 23.2828 47.107 23.3316 47.0714V47.8438C23.3762 47.6837 23.4268 47.5362 23.485 47.4098C23.5444 47.2835 23.6126 47.1861 23.6896 47.1109C23.7643 47.0357 23.8471 47 23.9353 47C23.9477 47 23.9677 47.0019 24 47.0087L23.9677 47.7772C23.8807 47.6962 23.8042 47.6528 23.7349 47.6528C23.649 47.6528 23.5755 47.7078 23.515 47.8168C23.4544 47.9257 23.4098 48.0598 23.3792 48.2218C23.3492 48.3819 23.3316 48.5362 23.3316 48.6818V51C23.2828 50.9662 23.2269 50.9508 23.1658 50.9508C23.1058 50.9508 23.0494 50.9662 23 51Z" fill="#FFFFFE"/>
<path fill-rule="evenodd" clip-rule="evenodd" d="M26.4349 48.6502C26.4349 48.2734 26.3719 47.9555 26.2421 47.6966C26.1152 47.4473 25.8899 47.3217 25.5682 47.3217C25.3812 47.3217 25.2208 47.3845 25.0795 47.5215C24.9411 47.6576 24.8361 47.8327 24.7626 48.0421C24.6872 48.2524 24.6481 48.4571 24.6481 48.6502H26.4349ZM24 49.0966C24 48.6483 24.0697 48.2677 24.2052 47.9498C24.3446 47.6338 24.5288 47.3959 24.7674 47.2379C25.0051 47.0799 25.2714 47 25.5682 47C25.9109 47 26.1934 47.0923 26.4053 47.2788C26.6211 47.4606 26.7738 47.6814 26.8645 47.9422C26.9551 48.2001 27 48.4571 27 48.7007C27 48.8158 26.9933 48.9015 26.9761 48.97H24.6481C24.6481 49.306 24.6844 49.5886 24.7588 49.8208C24.8314 50.054 24.9583 50.2339 25.1378 50.3681C25.3143 50.4927 25.5482 50.5575 25.8384 50.5575C26.0321 50.5575 26.2154 50.5127 26.391 50.4233C26.5647 50.331 26.707 50.2101 26.8148 50.0521L26.8673 50.4927C26.6927 50.626 26.5628 50.7231 26.4798 50.7783C26.3987 50.8382 26.286 50.8848 26.14 50.9296C25.9949 50.9791 25.8241 51 25.6236 51C25.2647 50.9829 24.9688 50.8848 24.7311 50.7059C24.4925 50.5299 24.314 50.2986 24.1976 50.0178C24.085 49.7361 24.0172 49.4268 24 49.0966Z" fill="#FFFFFE"/>
<path fill-rule="evenodd" clip-rule="evenodd" d="M28.6208 49.1449C28.6208 49.6842 28.711 50.0641 28.8915 50.2902C29.0702 50.5117 29.2571 50.6275 29.4485 50.6275C29.4667 50.6293 29.4923 50.6312 29.5242 50.6312C29.6882 50.6312 29.8377 50.5673 29.9754 50.4514C30.1139 50.3282 30.2279 50.1512 30.3081 49.9177C30.3892 49.6842 30.4303 49.4034 30.4303 49.0819C30.4303 48.6704 30.371 48.3035 30.2498 47.9699C30.1304 47.6372 29.9025 47.4667 29.5624 47.4667C29.5524 47.4667 29.5415 47.4667 29.5305 47.4704C29.5205 47.4704 29.5105 47.476 29.5014 47.476C29.1376 47.5001 28.9006 47.6771 28.7903 48.0079C28.6791 48.3359 28.6208 48.7158 28.6208 49.1449ZM28 49.2663C28 48.928 28.0319 48.6241 28.0957 48.3554C28.1586 48.0913 28.2516 47.8633 28.3765 47.6734C28.5023 47.4853 28.6527 47.3444 28.8314 47.248C29.0128 47.1507 29.2179 47.1035 29.4485 47.1035C29.5962 47.1035 29.7466 47.1378 29.9006 47.2063C30.0593 47.2768 30.1851 47.3657 30.2844 47.476C30.3838 47.5816 30.4303 47.6845 30.4303 47.7818V45C30.5342 45.0315 30.6299 45.0454 30.7129 45.0454C30.8022 45.0454 30.8952 45.0315 31 45V50.9388C30.9216 50.9055 30.8341 50.8916 30.7347 50.8916C30.6363 50.8916 30.5342 50.9055 30.4303 50.9388V50.2541C30.2753 50.5117 30.1039 50.7016 29.9189 50.8239C29.732 50.9416 29.5415 51 29.3455 51C29.1167 51 28.897 50.924 28.6892 50.772C28.4813 50.6182 28.3118 50.406 28.186 50.1419C28.0638 49.8741 28 49.585 28 49.2663Z" fill="#FFFFFE"/>
<path fill-rule="evenodd" clip-rule="evenodd" d="M32.059 50V46.5973C32.17 46.6236 32.282 46.6393 32.389 46.6393C32.5 46.6393 32.595 46.6236 32.682 46.5973V50C32.595 49.9712 32.5 49.9581 32.389 49.9581C32.282 49.9581 32.17 49.9712 32.059 50ZM32 45.3889C32 45.2614 32.039 45.1652 32.116 45.0995C32.19 45.0321 32.281 45 32.385 45C32.493 45 32.59 45.0354 32.672 45.1044C32.753 45.1751 32.793 45.268 32.793 45.3889C32.78 45.5171 32.734 45.6133 32.658 45.6807C32.582 45.7465 32.491 45.7818 32.389 45.7818C32.287 45.7818 32.196 45.7465 32.118 45.6741C32.039 45.6001 32 45.5056 32 45.3889Z" fill="#FFFFFE"/>
<path fill-rule="evenodd" clip-rule="evenodd" d="M33.2342 49.9362V47.3371H33C33.014 47.3019 33.0218 47.2562 33.0218 47.2C33.0218 47.1381 33.014 47.079 33 47.0143H33.2342V46.2552L33.5285 46V47.0143H33.9404C33.9264 47.079 33.9187 47.1333 33.9187 47.1724C33.9187 47.2181 33.9264 47.2667 33.9404 47.3371H33.5285V49.4305C33.5285 49.6648 33.5342 49.8638 33.5425 50.0352C33.5513 50.2038 33.5756 50.3562 33.6145 50.4848C33.6544 50.619 33.715 50.6819 33.7974 50.6819C33.8523 50.6819 33.9197 50.6486 34 50.5743V50.8286C33.8668 50.9448 33.7518 51 33.6477 51C33.5145 51 33.413 50.9086 33.342 50.721C33.2699 50.5314 33.2342 50.2714 33.2342 49.9362Z" fill="#FFFFFE"/>
<path fill-rule="evenodd" clip-rule="evenodd" d="M38.0183 50.0536V48.971C37.6663 49.01 37.3913 49.0681 37.1837 49.1423C36.9769 49.2166 36.826 49.3137 36.7279 49.4385C36.6327 49.5575 36.5846 49.7155 36.5846 49.8993C36.5846 49.9564 36.5904 50.0298 36.601 50.1126C36.6192 50.2335 36.6894 50.344 36.8125 50.4401C36.9385 50.5449 37.076 50.5944 37.2327 50.5944C37.5279 50.5944 37.7904 50.4125 38.0183 50.0536ZM36 49.9869C36 49.8117 36.0269 49.6498 36.0846 49.5127C36.1433 49.3785 36.2365 49.2576 36.3644 49.1557C36.4923 49.049 36.6615 48.9652 36.875 48.91L37.7452 48.7148C37.8442 48.692 37.9183 48.6387 37.9683 48.5568C38.0183 48.4787 38.0394 48.3816 38.0394 48.2683C38.0394 48.1254 38.0048 47.9779 37.9375 47.8331C37.8702 47.6884 37.7721 47.5656 37.6413 47.4685C37.5173 47.3666 37.3702 47.3218 37.2019 47.3218C37.0433 47.3218 36.9029 47.3647 36.7808 47.4551C36.6587 47.5427 36.5279 47.6922 36.3837 47.8893H36.274V47.4485C36.4067 47.3532 36.5279 47.279 36.6288 47.2209C36.7337 47.1581 36.8529 47.1133 36.9885 47.0647C37.125 47.0238 37.2673 47 37.4192 47C37.8317 47 38.1337 47.1076 38.3269 47.3123C38.5202 47.5227 38.6163 47.8627 38.6163 48.3349V50.3697C38.6163 50.5201 38.6788 50.5944 38.8029 50.5944C38.8481 50.5944 38.9115 50.5858 39 50.5592V50.7477C38.8865 50.8534 38.7558 50.9067 38.6019 50.9067C38.4596 50.9067 38.3337 50.8648 38.2212 50.7753C38.1067 50.6896 38.0385 50.5744 38.0183 50.4306C37.6769 50.8105 37.3183 51 36.949 51C36.6808 51 36.4577 50.9 36.275 50.7029C36.0923 50.5077 36 50.2697 36 49.9869Z" fill="#FFFFFE"/>
<path fill-rule="evenodd" clip-rule="evenodd" d="M38 49.0518C38 48.6374 38.0709 48.2758 38.2116 47.9746C38.3533 47.6657 38.5689 47.4297 38.8573 47.2552C39.1457 47.0844 39.501 47 39.9251 47C40.1537 47 40.3383 47.0249 40.481 47.0729C40.6178 47.1218 40.7934 47.2062 41 47.3242L40.8872 47.8959H40.7725C40.6567 47.7012 40.522 47.5564 40.3723 47.4633C40.2236 47.3693 40.0349 47.3242 39.8094 47.3242C39.5749 47.3242 39.3703 47.4029 39.2026 47.5564C39.0279 47.7156 38.9012 47.918 38.8114 48.1731C38.7236 48.4302 38.6806 48.7017 38.6806 48.9866C38.6806 49.2763 38.7255 49.5468 38.8174 49.8029C38.9092 50.0523 39.0479 50.2585 39.2365 50.4139C39.4261 50.5751 39.6567 50.6499 39.9251 50.6499C40.1407 50.6499 40.3263 50.6086 40.481 50.5242C40.6357 50.4379 40.7904 50.3103 40.9441 50.1367L41 50.2L40.9441 50.5866C40.7934 50.7209 40.6178 50.8225 40.4192 50.8935C40.2176 50.9645 40.013 51 39.8034 51C39.5 51 39.2066 50.9271 38.9281 50.7832C38.6497 50.6307 38.4242 50.4082 38.2555 50.1156C38.0848 49.8221 38 49.4681 38 49.0518Z" fill="#FFFFFE"/>
<path fill-rule="evenodd" clip-rule="evenodd" d="M42.057 50V46.5973C42.168 46.6236 42.282 46.6393 42.391 46.6393C42.498 46.6393 42.596 46.6236 42.679 46.5973V50C42.596 49.9712 42.498 49.9581 42.391 49.9581C42.282 49.9581 42.168 49.9712 42.057 50ZM42 45.3889C42 45.2614 42.038 45.1652 42.115 45.0995C42.19 45.0321 42.28 45 42.383 45C42.493 45 42.589 45.0354 42.671 45.1044C42.754 45.1751 42.795 45.268 42.795 45.3889C42.778 45.5171 42.737 45.6133 42.658 45.6807C42.581 45.7465 42.493 45.7818 42.391 45.7818C42.285 45.7818 42.194 45.7465 42.117 45.6741C42.038 45.6001 42 45.5056 42 45.3889Z" fill="#FFFFFE"/>
<path fill-rule="evenodd" clip-rule="evenodd" d="M44.0182 46.1821L45.0969 45.1757C45.21 45.0589 45.3489 45 45.5136 45C45.5976 45 45.6715 45.016 45.7331 45.0555C45.7925 45.09 45.8272 45.1362 45.8272 45.1951C45.8272 45.2968 45.732 45.4036 45.5416 45.512L44.3341 46.1821H44.0182ZM43.7628 48.4269C43.7628 48.6977 43.8479 48.9835 44.0182 49.2887C44.1896 49.588 44.5055 49.7486 44.9681 49.7747C45.3288 49.7747 45.6234 49.6418 45.8519 49.3846C46.0759 49.1248 46.2081 48.7506 46.2383 48.2596C46.2383 47.9603 46.1946 47.698 46.1095 47.471C46.021 47.2381 45.8888 47.0607 45.7085 46.9329C45.5293 46.8076 45.3019 46.7421 45.033 46.7421C44.641 46.7421 44.3307 46.8984 44.1 47.2087C43.867 47.5189 43.7561 47.8771 43.7561 48.284C43.7561 48.3118 43.7561 48.363 43.7628 48.4269ZM43 48.3714C43 48.0032 43.0851 47.6703 43.2565 47.381C43.4324 47.0935 43.6754 46.8682 43.9958 46.7042C44.3162 46.5453 44.6858 46.4646 45.0969 46.4646C45.5785 46.4646 45.9616 46.5747 46.2484 46.7933C46.5318 47.0094 46.7289 47.2591 46.8376 47.5383C46.9474 47.8157 47 48.057 47 48.2596C47 48.453 46.963 48.6489 46.8902 48.8473C46.8152 49.0441 46.702 49.2299 46.5396 49.4089C46.3794 49.5847 46.17 49.7293 45.909 49.8411C45.6536 49.9479 45.3523 50 45.0196 50C45.0039 50 44.9838 50 44.9681 49.9983C44.9513 49.9966 44.93 49.9966 44.9053 49.9966C44.5167 49.9966 44.1784 49.926 43.8894 49.7814C43.6004 49.6368 43.3797 49.4434 43.2296 49.1988C43.075 48.949 43 48.6716 43 48.3714Z" fill="#FFFFFE"/>
<path fill-rule="evenodd" clip-rule="evenodd" d="M49 51V47.0647C49.0835 47.0951 49.1914 47.1131 49.3166 47.1131C49.4428 47.1131 49.5497 47.0951 49.6342 47.0647V47.7616C49.7136 47.6427 49.7818 47.5515 49.8297 47.4887C49.8765 47.4269 49.9488 47.3527 50.0394 47.2729C50.134 47.1949 50.247 47.1265 50.3814 47.078C50.5148 47.0257 50.6715 47 50.8466 47C51.0533 47 51.2406 47.058 51.4167 47.1692C51.5948 47.2824 51.7343 47.4602 51.8412 47.7131C51.9471 47.9584 52 48.2741 52 48.6506V51C51.9155 50.9667 51.8219 50.9515 51.7251 50.9515C51.6315 50.9515 51.5114 50.9667 51.3648 51V48.6506C51.3648 48.2836 51.2854 47.9974 51.1235 47.7987C50.9606 47.5981 50.7652 47.503 50.5412 47.503C50.3865 47.503 50.2409 47.5477 50.0994 47.6484C49.961 47.7445 49.848 47.888 49.7625 48.083C49.679 48.2798 49.6342 48.5099 49.6342 48.7751V51C49.5192 50.9667 49.4153 50.9515 49.3166 50.9515C49.2219 50.9515 49.115 50.9667 49 51Z" fill="#FFFFFE"/>
<path fill-rule="evenodd" clip-rule="evenodd" d="M14 54.4717C14 54.1424 14.0594 53.8286 14.1722 53.5271C14.287 53.2256 14.452 52.9601 14.6621 52.7337C14.8752 52.5125 15.1345 52.3252 15.4389 52.1986C15.7433 52.0638 16.0774 52 16.4443 52C17.1514 52 17.671 52.1101 18 52.3252L17.8473 52.8798H17.793C17.6536 52.7357 17.5091 52.6226 17.3666 52.5382C17.2242 52.4476 17.0715 52.3879 16.9198 52.3416C16.7681 52.2974 16.6144 52.2768 16.4576 52.2768C16.144 52.2768 15.8499 52.3632 15.5783 52.532C15.3057 52.7008 15.0884 52.9488 14.9244 53.2678C14.7594 53.5898 14.6764 53.9634 14.6764 54.3914V54.4717C14.6836 54.8596 14.741 55.1889 14.8373 55.4606C14.9398 55.7374 15.074 55.9607 15.2452 56.1439C15.4163 56.3167 15.6059 56.4495 15.815 56.5277C16.0251 56.61 16.2465 56.6501 16.475 56.6501C16.7343 56.6501 16.9895 56.6018 17.2426 56.5061C17.4937 56.4114 17.713 56.2807 17.8985 56.1222L17.8473 56.5575C17.6936 56.6522 17.5337 56.7345 17.3625 56.8035C17.1965 56.8714 17.0284 56.9197 16.8583 56.9516C16.6882 56.9815 16.5263 57 16.3684 57C16.0569 57 15.7525 56.9393 15.4666 56.8251C15.1776 56.7067 14.9224 56.5339 14.701 56.3085C14.4776 56.0811 14.3064 55.8166 14.1834 55.5048C14.0625 55.1972 14 54.8494 14 54.4717Z" fill="#FFFFFE"/>
<path fill-rule="evenodd" clip-rule="evenodd" d="M19 56V52H19.3168L22.5747 55.0436V52C22.6274 52.0196 22.6989 52.0332 22.7863 52.0332C22.8779 52.0332 22.9474 52.0196 23 52V56H22.7326L19.4232 52.8627V56C19.3737 55.9753 19.3053 55.9651 19.2305 55.9651C19.1558 55.9651 19.0789 55.9753 19 56Z" fill="#FFFFFE"/>
<path fill-rule="evenodd" clip-rule="evenodd" d="M24.267 54.1563H25.5349L24.9 52.7643L24.267 54.1563ZM23 56L24.949 52H25.0943L27 56C26.9779 56 26.9413 56 26.8923 55.9966C26.8451 55.9949 26.7864 55.9899 26.7229 55.9848C26.6623 55.9831 26.6094 55.9831 26.5671 55.9831C26.4786 55.9831 26.393 55.9865 26.3131 56L25.633 54.4276H24.1217L23.4858 56C23.4425 55.9865 23.3906 55.9831 23.3271 55.9831C23.3011 55.9831 23.2636 55.9831 23.2126 55.9848C23.1635 55.9899 23.1222 55.9949 23.0847 55.9966C23.0481 56 23.0164 56 23 56Z" fill="#FFFFFE"/>
<mask id="mask0" mask-type="alpha" maskUnits="userSpaceOnUse" x="0" y="0" width="194" height="74">
<path fill-rule="evenodd" clip-rule="evenodd" d="M0 74H194V0H0V74Z" fill="white"/>
</mask>
<g mask="url(#mask0)">
<path fill-rule="evenodd" clip-rule="evenodd" d="M27 55.481H28V55H27V55.481Z" fill="#FFFFFE"/>
<path fill-rule="evenodd" clip-rule="evenodd" d="M29 54.4717C29 54.1424 29.0594 53.8286 29.1741 53.5271C29.2867 53.2256 29.4516 52.9601 29.6646 52.7337C29.8735 52.5125 30.1336 52.3252 30.4368 52.1986C30.7409 52.0638 31.0737 52 31.4414 52C32.147 52 32.6662 52.1101 33 52.3252L32.8454 52.8798H32.7911C32.6487 52.7357 32.5084 52.6226 32.362 52.5382C32.2217 52.4476 32.0712 52.3879 31.9206 52.3416C31.766 52.2994 31.6114 52.2768 31.4547 52.2768C31.1423 52.2768 30.8484 52.3632 30.576 52.532C30.3067 52.7008 30.0876 52.9488 29.9237 53.2678C29.7588 53.5898 29.6759 53.9634 29.6759 54.3914V54.4717C29.6831 54.8596 29.7404 55.1889 29.8387 55.4606C29.9391 55.7374 30.0732 55.9607 30.2442 56.1439C30.4163 56.3167 30.6047 56.4495 30.8146 56.5277C31.0256 56.61 31.2437 56.6501 31.4741 56.6501C31.7332 56.6501 31.9892 56.6018 32.2412 56.5061C32.491 56.4114 32.7092 56.2848 32.8976 56.1222L32.8454 56.5575C32.6907 56.6522 32.53 56.7345 32.362 56.8035C32.193 56.8714 32.0261 56.9197 31.8561 56.9516C31.6851 56.9815 31.5223 57 31.3666 57C31.0543 57 30.7512 56.9393 30.4644 56.8251C30.1756 56.7067 29.9237 56.5339 29.7015 56.3085C29.4782 56.0811 29.3062 55.8166 29.1854 55.5048C29.0614 55.1972 29 54.8494 29 54.4717Z" fill="#FFFFFE"/>
<path fill-rule="evenodd" clip-rule="evenodd" d="M33 57V52C33.115 52.027 33.2232 52.0396 33.3315 52.0396C33.4397 52.0396 33.5368 52.027 33.6217 52V54.3706C33.6752 54.3127 33.7333 54.2431 33.7969 54.163C33.8616 54.0838 33.9431 54.0162 34.0357 53.9525C34.1272 53.8936 34.2444 53.8443 34.3884 53.8086C34.5312 53.769 34.7098 53.7545 34.9241 53.7545C35.1261 53.7545 35.3092 53.8028 35.4754 53.909C35.6406 54.0162 35.7701 54.1582 35.8616 54.3349C35.9531 54.5164 36 54.7144 36 54.9384V57C35.8873 56.9739 35.7835 56.9604 35.6908 56.9604C35.5949 56.9604 35.4911 56.9739 35.3795 57V54.9876C35.3795 54.7124 35.2958 54.5029 35.135 54.3503C34.9743 54.1997 34.7779 54.1273 34.5525 54.1273C34.3962 54.1273 34.2467 54.1669 34.1049 54.2441C33.9587 54.3252 33.8415 54.4479 33.7556 54.612C33.6652 54.7781 33.6217 54.9683 33.6217 55.1972V57C33.5368 56.9739 33.4397 56.9604 33.3315 56.9604C33.2232 56.9604 33.115 56.9739 33 57Z" fill="#FFFFFE"/>
<path fill-rule="evenodd" clip-rule="evenodd" d="M37.048 57V53.5957C37.151 53.6225 37.249 53.6379 37.348 53.6379C37.447 53.6379 37.532 53.6225 37.608 53.5957V57C37.532 56.9722 37.447 56.9578 37.348 56.9578C37.249 56.9578 37.151 56.9722 37.048 57ZM37 52.3917C37 52.2632 37.034 52.1625 37.101 52.0977C37.167 52.0319 37.248 52 37.342 52C37.439 52 37.527 52.0319 37.598 52.1018C37.671 52.1707 37.709 52.2663 37.709 52.3917C37.695 52.512 37.654 52.6066 37.586 52.6827C37.519 52.7465 37.439 52.7804 37.348 52.7804C37.256 52.7804 37.173 52.7444 37.104 52.6745C37.034 52.5984 37 52.5079 37 52.3917Z" fill="#FFFFFE"/>
<path fill-rule="evenodd" clip-rule="evenodd" d="M38 57V52C38.101 52.0258 38.192 52.0392 38.277 52.0392C38.362 52.0392 38.457 52.0258 38.557 52V57C38.479 56.9742 38.396 56.9608 38.298 56.9608C38.2 56.9608 38.101 56.9742 38 57Z" fill="#FFFFFE"/>
<path fill-rule="evenodd" clip-rule="evenodd" d="M42.4337 55.2402C42.4337 54.9527 42.3708 54.717 42.2428 54.5232C42.1127 54.3313 41.8898 54.2357 41.5699 54.2357C41.3832 54.2357 41.2211 54.2884 41.0803 54.3929C40.9449 54.4938 40.8383 54.625 40.7625 54.7812C40.6879 54.9384 40.6506 55.092 40.6506 55.2402H42.4337ZM40 55.5714C40 55.2366 40.0704 54.9509 40.2122 54.7098C40.3455 54.4732 40.5332 54.2946 40.7679 54.1768C41.0068 54.058 41.2702 54 41.5699 54C41.9122 54 42.1895 54.0696 42.406 54.2045C42.6214 54.3473 42.7728 54.5098 42.8635 54.7063C42.9541 54.9 43 55.0902 43 55.2768C43 55.3607 42.9915 55.4286 42.9755 55.4777H40.6506C40.6506 55.7286 40.6879 55.9429 40.7604 56.117C40.8329 56.292 40.9577 56.4277 41.1401 56.5232C41.315 56.6196 41.5475 56.6688 41.8418 56.6688C42.0327 56.6688 42.2161 56.6339 42.3889 56.5652C42.5638 56.5009 42.7057 56.4089 42.8123 56.2902L42.8688 56.6196C42.6907 56.7205 42.5638 56.792 42.4796 56.8339C42.3996 56.8777 42.2833 56.9125 42.1404 56.9491C41.9954 56.9857 41.8247 57 41.621 57C41.2648 56.9875 40.9705 56.9125 40.7295 56.7821C40.4906 56.6473 40.3157 56.4732 40.2037 56.2625C40.0864 56.0509 40.0192 55.8241 40 55.5714Z" fill="#FFFFFE"/>
<path fill-rule="evenodd" clip-rule="evenodd" d="M30.8674 15.377L37 28.0908L32.7554 30.9864L27.489 20.0143L20.7407 34.5595L20.4685 34.8124L19.9277 35H15.1366L15 34.9366L24.1154 15.2511L24.3848 15H24.7216H30.5961L30.7137 15.1084L30.8674 15.377Z" fill="#FFFFFE"/>
<path fill-rule="evenodd" clip-rule="evenodd" d="M34.0306 32L28 36L36 35.993L34.0306 32Z" fill="#FFFFFE"/>
<path fill-rule="evenodd" clip-rule="evenodd" d="M37 28.1717L47 20L40.441 35H40.3462H40.1276L39.9696 34.842L37 28.1717Z" fill="#FFFFFE"/>
<path fill-rule="evenodd" clip-rule="evenodd" d="M2.10423 0V6.31029C2.10423 8.4305 3.04518 9.40962 4.46587 9.40962C5.98895 9.40962 6.89577 8.4305 6.89577 6.31029V0H9V6.18218C9 9.52217 7.1688 11 4.39762 11C1.72784 11 0 9.6027 0 6.19774V0H2.10423Z" fill="#FFFFFE"/>
<path fill-rule="evenodd" clip-rule="evenodd" d="M11 11V0H13.36L16.2924 4.71694C17.0503 5.94082 17.7082 7.21305 18.2298 8.40438H18.2634C18.1289 6.93685 18.078 5.51674 18.078 3.83531V0H20V11H17.86L14.893 6.16867C14.1687 4.96153 13.4109 3.60746 12.8538 2.36684L12.8029 2.38265C12.8874 3.80369 12.9037 5.25448 12.9037 7.06704V11H11Z" fill="#FFFFFE"/>
<path fill-rule="evenodd" clip-rule="evenodd" d="M23 11H26V0H23V11Z" fill="#FFFFFE"/>
<path fill-rule="evenodd" clip-rule="evenodd" d="M29.6821 11L26 0H28.2632L29.8169 4.99408C30.2568 6.38071 30.6275 7.67061 30.9317 9.00888H30.9653C31.2695 7.70316 31.6758 6.3649 32.1311 5.02663L33.7878 0H36L32.0637 11H29.6821Z" fill="#FFFFFE"/>
<path fill-rule="evenodd" clip-rule="evenodd" d="M42.5588 6.12031H38.8134V9.35112H43V11H37V0H42.7807V1.64888H38.8134V4.48816H42.5588V6.12031Z" fill="#FFFFFE"/>
<path fill-rule="evenodd" clip-rule="evenodd" d="M47.0461 5.05505H48.2703C49.6628 5.05505 50.5343 4.3424 50.5343 3.2568C50.5343 2.05765 49.6628 1.50747 48.321 1.50747C47.6673 1.50747 47.2478 1.55639 47.0461 1.60532V5.05505ZM45 0.228013C45.7712 0.0978516 46.9286 0 48.1193 0C49.7469 0 50.8535 0.260322 51.6076 0.876049C52.2278 1.37823 52.5805 2.13889 52.5805 3.06294C52.5805 4.47163 51.5913 5.42707 50.5343 5.80094V5.84894C51.339 6.14065 51.8264 6.90223 52.1122 7.95552C52.4629 9.31437 52.7649 10.5781 53 11H50.8707C50.7025 10.676 50.434 9.78516 50.1148 8.42355C49.7975 6.99824 49.2595 6.54498 48.0859 6.51267H47.0461V11H45V0.228013Z" fill="#FFFFFE"/>
<path fill-rule="evenodd" clip-rule="evenodd" d="M54.4944 8.72153C55.224 9.08503 56.3201 9.40164 57.4702 9.40164C58.9139 9.40164 59.7174 8.81533 59.7174 7.9458C59.7174 7.1385 59.0971 6.66404 57.5254 6.17245C55.4988 5.54014 54.2019 4.60656 54.2019 3.07044C54.2019 1.32956 55.8808 0 58.5485 0C59.8819 0 60.8676 0.252562 61.5077 0.538499L60.9591 2.10439C60.522 1.89963 59.6622 1.59926 58.5111 1.59926C57.0861 1.59926 56.4668 2.26314 56.4668 2.88011C56.4668 3.70455 57.1777 4.08339 58.8223 4.63813C60.9591 5.33358 62 6.26716 62 7.80328C62 9.51259 60.5033 11 57.3245 11C56.0276 11 54.6776 10.6843 54 10.3352L54.4944 8.72153Z" fill="#FFFFFE"/>
<path fill-rule="evenodd" clip-rule="evenodd" d="M63 11H66V0H63V11Z" fill="#FFFFFE"/>
<path fill-rule="evenodd" clip-rule="evenodd" d="M69.9216 9.38001C70.1879 9.42844 70.5948 9.42844 70.984 9.42844C73.4853 9.44397 74.9688 8.03323 74.9688 5.29122C74.9849 2.90282 73.6402 1.54049 71.2351 1.54049C70.626 1.54049 70.1879 1.58892 69.9216 1.65288V9.38001ZM68 0.22477C68.8433 0.0804054 69.9216 0 71.0623 0C73.0312 0 74.3918 0.41756 75.3598 1.25177C76.3758 2.10059 77 3.38433 77 5.22726C77 7.15242 76.3598 8.59515 75.3598 9.52438C74.3134 10.5029 72.6402 11 70.5948 11C69.4693 11 68.626 10.936 68 10.8556V0.22477Z" fill="#FFFFFE"/>
<path fill-rule="evenodd" clip-rule="evenodd" d="M83.3846 6.3649L82.4895 3.65675C82.27 2.98715 82.0833 2.23664 81.9148 1.60052H81.8811C81.7136 2.23664 81.5442 3.00389 81.3411 3.65675L80.4633 6.3649H83.3846ZM80.1245 7.88358L79.1455 11H77L80.6491 0H83.2999L87 11H84.7698L83.7398 7.88358H80.1245Z" fill="#FFFFFE"/>
<path fill-rule="evenodd" clip-rule="evenodd" d="M89.9216 9.38001C90.1879 9.42844 90.5948 9.42844 90.984 9.42844C93.4853 9.44397 94.9688 8.03323 94.9688 5.29122C94.9849 2.90282 93.6402 1.54049 91.2351 1.54049C90.626 1.54049 90.1879 1.58892 89.9216 1.65288V9.38001ZM88 0.22477C88.8433 0.0804054 89.9216 0 91.0623 0C93.0312 0 94.3918 0.41756 95.3598 1.25177C96.3758 2.10059 97 3.38433 97 5.22726C97 7.15242 96.3598 8.59515 95.3598 9.52438C94.3134 10.5029 92.6402 11 90.5948 11C89.4693 11 88.626 10.936 88 10.8556V0.22477Z" fill="#FFFFFE"/>
<path fill-rule="evenodd" clip-rule="evenodd" d="M108.385 6.3649L107.489 3.65675C107.27 2.98715 107.083 2.23664 106.915 1.60052H106.881C106.714 2.23664 106.544 3.00389 106.341 3.65675L105.463 6.3649H108.385ZM105.124 7.88358L104.146 11H102L105.649 0H108.3L112 11H109.769L108.74 7.88358H105.124Z" fill="#FFFFFE"/>
<path fill-rule="evenodd" clip-rule="evenodd" d="M120.898 10.5255C120.399 10.7637 119.3 11 117.908 11C114.233 11 112 8.88028 112 5.63485C112 2.12062 114.644 0 118.184 0C119.575 0 120.571 0.268799 121 0.474457L120.537 2.02591C119.986 1.80492 119.231 1.6146 118.269 1.6146C115.916 1.6146 114.216 2.97573 114.216 5.54014C114.216 7.88266 115.709 9.3854 118.252 9.3854C119.111 9.3854 120.003 9.22755 120.554 8.99032L120.898 10.5255Z" fill="#FFFFFE"/>
<path fill-rule="evenodd" clip-rule="evenodd" d="M125.046 5.05505H126.27C127.663 5.05505 128.534 4.3424 128.534 3.2568C128.534 2.05765 127.663 1.50747 126.321 1.50747C125.667 1.50747 125.248 1.55639 125.046 1.60532V5.05505ZM123 0.228013C123.771 0.0978516 124.929 0 126.119 0C127.747 0 128.854 0.260322 129.608 0.876049C130.228 1.37823 130.58 2.13889 130.58 3.06294C130.58 4.47163 129.591 5.42707 128.534 5.80094V5.84894C129.339 6.14065 129.826 6.90223 130.112 7.95552C130.463 9.31437 130.765 10.5781 131 11H128.871C128.703 10.676 128.434 9.78516 128.115 8.42355C127.798 6.99824 127.259 6.54498 126.086 6.51267H125.046V11H123V0.228013Z" fill="#FFFFFE"/>
<path fill-rule="evenodd" clip-rule="evenodd" d="M136.559 6.12031H132.813V9.35112H137V11H131V0H136.781V1.64888H132.813V4.48816H136.559V6.12031Z" fill="#FFFFFE"/>
<path fill-rule="evenodd" clip-rule="evenodd" d="M141.922 9.38001C142.188 9.42844 142.595 9.42844 142.984 9.42844C145.485 9.44397 146.969 8.03323 146.969 5.29122C146.986 2.90282 145.64 1.54049 143.235 1.54049C142.626 1.54049 142.188 1.58892 141.922 1.65288V9.38001ZM140 0.22477C140.843 0.0804054 141.922 0 143.062 0C145.031 0 146.393 0.41756 147.36 1.25177C148.376 2.10059 149 3.38433 149 5.22726C149 7.15242 148.36 8.59515 147.36 9.52438C146.313 10.5029 144.64 11 142.595 11C141.469 11 140.626 10.936 140 10.8556V0.22477Z" fill="#FFFFFE"/>
<path fill-rule="evenodd" clip-rule="evenodd" d="M152 11H155V0H152V11Z" fill="#FFFFFE"/>
<path fill-rule="evenodd" clip-rule="evenodd" d="M157.395 1.68222H154V0H163V1.68222H159.57V11H157.395V1.68222Z" fill="#FFFFFE"/>
<path fill-rule="evenodd" clip-rule="evenodd" d="M168.387 6.3649L167.489 3.65675C167.272 2.98715 167.085 2.23664 166.917 1.60052H166.883C166.714 2.23664 166.544 3.00389 166.341 3.65675L165.463 6.3649H168.387ZM165.126 7.88358L164.146 11H162L165.649 0H168.302L172 11H169.77L168.74 7.88358H165.126Z" fill="#FFFFFE"/>
<path fill-rule="evenodd" clip-rule="evenodd" d="M175.922 9.38001C176.186 9.42844 176.593 9.42844 176.984 9.42844C179.484 9.44397 180.969 8.03323 180.969 5.29122C180.986 2.90282 179.64 1.54049 177.233 1.54049C176.624 1.54049 176.186 1.58892 175.922 1.65288V9.38001ZM174 0.22477C174.843 0.0804054 175.922 0 177.062 0C179.031 0 180.39 0.41756 181.358 1.25177C182.374 2.10059 183 3.38433 183 5.22726C183 7.15242 182.359 8.59515 181.358 9.52438C180.312 10.5029 178.64 11 176.593 11C175.467 11 174.624 10.936 174 10.8556V0.22477Z" fill="#FFFFFE"/>
<path fill-rule="evenodd" clip-rule="evenodd" d="M190.385 6.3649L189.489 3.65675C189.27 2.98715 189.083 2.23664 188.915 1.60052H188.881C188.714 2.23664 188.544 3.00389 188.341 3.65675L187.463 6.3649H190.385ZM187.124 7.88358L186.146 11H184L187.649 0H190.3L194 11H191.77L190.74 7.88358H187.124Z" fill="#FFFFFE"/>
<path fill-rule="evenodd" clip-rule="evenodd" d="M88 27.5707C87.578 27.7451 86.7324 28 85.7464 28C84.642 28 83.7319 27.6986 83.0178 26.9651C82.3893 26.3139 82 25.2676 82 24.046C82 21.7079 83.5051 20 85.9529 20C86.7977 20 87.4695 20.1981 87.7837 20.3611L87.5454 21.1866C87.1552 20.9885 86.6679 20.8482 85.9309 20.8482C84.1557 20.8482 82.9957 22.0348 82.9957 23.9995C82.9957 25.9889 84.1009 27.1631 85.8117 27.1631C86.4296 27.1631 86.8524 27.0703 87.0687 26.9546V24.6165H85.5945V23.8024H88V27.5707Z" fill="#FFFFFE"/>
<path fill-rule="evenodd" clip-rule="evenodd" d="M93.0048 25.0392C93.0162 24.4848 92.7357 23.6238 91.5878 23.6238C90.5334 23.6238 90.0887 24.4356 90.0067 25.0392H93.0048ZM89.9962 25.663C90.0181 26.8323 90.8969 27.3157 91.9275 27.3157C92.6651 27.3157 93.1212 27.2084 93.4962 27.0696L93.6832 27.6934C93.3206 27.8313 92.6889 28 91.7872 28C90.0534 28 89 27.0203 89 25.5847C89 24.1386 90.0181 23 91.6698 23C93.52 23 94 24.3759 94 25.2579C94 25.4354 93.9876 25.5646 93.9647 25.663H89.9962Z" fill="#FFFFFE"/>
<path fill-rule="evenodd" clip-rule="evenodd" d="M94.2652 27.01C94.6067 27.1681 95.1896 27.3457 95.7477 27.3457C96.5453 27.3457 96.9229 27.0399 96.9229 26.6332C96.9229 26.2185 96.6082 25.9998 95.7973 25.7626C94.683 25.4455 94.164 24.9711 94.164 24.4047C94.164 23.6334 94.9739 23 96.278 23C96.8991 23 97.4439 23.1283 97.771 23.2969L97.5068 23.9214C97.2654 23.8117 96.8228 23.6439 96.2533 23.6439C95.594 23.6439 95.2401 23.94 95.2401 24.2974C95.2401 24.6936 95.594 24.8719 96.3926 25.1188C97.4439 25.4262 98 25.8417 98 26.5549C98 27.4054 97.1519 28 95.7209 28C95.0513 28 94.4302 27.8612 94 27.6635L94.2652 27.01Z" fill="#FFFFFE"/>
<path fill-rule="evenodd" clip-rule="evenodd" d="M100.244 22V23.1408H102V23.7998H100.244V26.3581C100.244 26.9482 100.48 27.2817 101.164 27.2817C101.498 27.2817 101.693 27.2624 101.875 27.2239L101.93 27.8821C101.693 27.9407 101.316 28 100.843 28C100.271 28 99.8115 27.8621 99.5196 27.6368C99.1846 27.3707 99.046 26.9482 99.046 26.3878V23.7998H98V23.1408H99.046V22.2654L100.244 22Z" fill="#FFFFFE"/>
<path fill-rule="evenodd" clip-rule="evenodd" d="M102.102 28H102.908V22.2635H102.102V28ZM102.487 21.2916C102.193 21.2916 102 20.997 102 20.6511C102 20.285 102.203 20 102.504 20C102.798 20 103 20.285 103 20.6511C103 20.997 102.807 21.2916 102.495 21.2916H102.487Z" fill="#FFFFFE"/>
<path fill-rule="evenodd" clip-rule="evenodd" d="M108.89 20L107.601 21.6254H106.945L107.876 20H108.89ZM107.495 27.2508C108.382 27.2508 109.049 26.3515 109.049 25.104C109.049 24.1704 108.616 23.0007 107.516 23.0007C106.427 23.0007 105.952 24.0908 105.952 25.1364C105.952 26.3413 106.586 27.2508 107.484 27.2508H107.495ZM107.453 28C106.079 28 105 26.9099 105 25.1706C105 23.3295 106.131 22.2505 107.538 22.2505C109.007 22.2505 110 23.398 110 25.0697C110 27.1137 108.679 28 107.463 28H107.453Z" fill="#FFFFFE"/>
<path fill-rule="evenodd" clip-rule="evenodd" d="M111.049 24.4342C111.049 23.9188 111.036 23.5154 111 23.1111H111.938L111.998 23.9089H112.023C112.31 23.4545 112.983 23 113.944 23C114.749 23 116 23.4042 116 25.0805V28H114.943V25.1818C114.943 24.3939 114.594 23.7278 113.597 23.7278C112.911 23.7278 112.37 24.1428 112.178 24.6359C112.13 24.7471 112.106 24.9093 112.106 25.0509V28H111.049V24.4342Z" fill="#FFFFFE"/>
<path fill-rule="evenodd" clip-rule="evenodd" d="M119 28H120V20H119V28Z" fill="#FFFFFE"/>
<path fill-rule="evenodd" clip-rule="evenodd" d="M121.049 24.4342C121.049 23.9188 121.036 23.5154 121 23.1111H121.938L121.998 23.9089H122.023C122.31 23.4545 122.983 23 123.945 23C124.75 23 126 23.4042 126 25.0805V28H124.943V25.1818C124.943 24.3939 124.594 23.7278 123.597 23.7278C122.912 23.7278 122.371 24.1428 122.178 24.6359C122.13 24.7471 122.107 24.9093 122.107 25.0509V28H121.049V24.4342Z" fill="#FFFFFE"/>
<path fill-rule="evenodd" clip-rule="evenodd" d="M128.265 27.01C128.608 27.1681 129.19 27.3457 129.748 27.3457C130.545 27.3457 130.923 27.0399 130.923 26.6332C130.923 26.2185 130.608 25.9998 129.797 25.7626C128.683 25.4455 128.164 24.9711 128.164 24.4047C128.164 23.6334 128.974 23 130.278 23C130.899 23 131.444 23.1283 131.771 23.2969L131.507 23.9214C131.265 23.8117 130.823 23.6439 130.253 23.6439C129.594 23.6439 129.24 23.94 129.24 24.2974C129.24 24.6936 129.594 24.8719 130.393 25.1188C131.444 25.4262 132 25.8417 132 26.5549C132 27.4054 131.152 28 129.721 28C129.051 28 128.43 27.8612 128 27.6635L128.265 27.01Z" fill="#FFFFFE"/>
<path fill-rule="evenodd" clip-rule="evenodd" d="M133.244 22V23.1408H135V23.7998H133.244V26.3581C133.244 26.9482 133.48 27.2817 134.163 27.2817C134.497 27.2817 134.692 27.2624 134.874 27.2239L134.928 27.8821C134.692 27.9407 134.315 28 133.842 28C133.271 28 132.811 27.8621 132.519 27.6368C132.184 27.3707 132.046 26.9482 132.046 26.3878V23.7998H131V23.1408H132.046V22.2654L133.244 22Z" fill="#FFFFFE"/>
<path fill-rule="evenodd" clip-rule="evenodd" d="M135.102 28H135.908V22.2635H135.102V28ZM135.487 21.2916C135.193 21.2916 135 20.997 135 20.6511C135 20.285 135.203 20 135.505 20C135.798 20 136 20.285 136 20.6511C136 20.997 135.808 21.2916 135.496 21.2916H135.487Z" fill="#FFFFFE"/>
<path fill-rule="evenodd" clip-rule="evenodd" d="M139.245 22V23.1408H141V23.7998H139.245V26.3581C139.245 26.9482 139.481 27.2817 140.164 27.2817C140.498 27.2817 140.692 27.2624 140.875 27.2239L140.93 27.8821C140.692 27.9407 140.316 28 139.843 28C139.272 28 138.812 27.8621 138.52 27.6368C138.185 27.3707 138.047 26.9482 138.047 26.3878V23.7998H137V23.1408H138.047V22.2654L139.245 22Z" fill="#FFFFFE"/>
<path fill-rule="evenodd" clip-rule="evenodd" d="M144.952 26.5463C144.952 27.0608 144.963 27.5061 145 27.8889H144.053L143.992 27.0912H143.968C143.7 27.4855 143.071 28 142.026 28C141.104 28 140 27.5662 140 25.8581V23H141.067V25.6976C141.067 26.6269 141.42 27.2633 142.378 27.2633C143.094 27.2633 143.592 26.8484 143.785 26.445C143.848 26.3232 143.883 26.1618 143.883 25.9898V23H144.952V26.5463Z" fill="#FFFFFE"/>
<path fill-rule="evenodd" clip-rule="evenodd" d="M150.979 27.7233C150.738 27.8314 150.204 28 149.524 28C147.995 28 147 27.0205 147 25.5545C147 24.0787 148.069 23 149.722 23C150.267 23 150.748 23.1291 151 23.2582L150.79 23.9214C150.571 23.8117 150.225 23.6939 149.722 23.6939C148.561 23.6939 147.933 24.5144 147.933 25.5052C147.933 26.613 148.686 27.2972 149.691 27.2972C150.214 27.2972 150.56 27.1778 150.822 27.0689L150.979 27.7233Z" fill="#FFFFFE"/>
<path fill-rule="evenodd" clip-rule="evenodd" d="M152.101 28H152.907V22.2635H152.101V28ZM152.486 21.2916C152.192 21.2916 152 20.997 152 20.6511C152 20.285 152.201 20 152.504 20C152.797 20 153 20.285 153 20.6511C153 20.997 152.807 21.2916 152.495 21.2916H152.486Z" fill="#FFFFFE"/>
<path fill-rule="evenodd" clip-rule="evenodd" d="M155.495 28.2181C156.382 28.2181 157.049 27.2796 157.049 25.9778C157.049 25.0035 156.616 23.7829 155.516 23.7829C154.427 23.7829 153.952 24.9204 153.952 26.0116C153.952 27.269 154.586 28.2181 155.484 28.2181H155.495ZM155.453 29C154.079 29 153 27.8624 153 26.0474C153 24.126 154.131 23 155.538 23C157.007 23 158 24.1975 158 25.942C158 28.0751 156.679 29 155.463 29H155.453Z" fill="#FFFFFE"/>
<path fill-rule="evenodd" clip-rule="evenodd" d="M160.049 24.4342C160.049 23.9188 160.036 23.5154 160 23.1111H160.938L160.999 23.9089H161.022C161.311 23.4545 161.983 23 162.945 23C163.75 23 165 23.4042 165 25.0805V28H163.942V25.1818C163.942 24.3939 163.593 23.7278 162.598 23.7278C161.911 23.7278 161.371 24.1428 161.179 24.6359C161.13 24.7471 161.107 24.9093 161.107 25.0509V28H160.049V24.4342Z" fill="#FFFFFE"/>
<path fill-rule="evenodd" clip-rule="evenodd" d="M169.036 25.942C168.041 25.9178 166.912 26.1198 166.912 27.2332C166.912 27.9214 167.305 28.2297 167.761 28.2297C168.424 28.2297 168.849 27.7561 168.994 27.269C169.026 27.1627 169.036 27.0448 169.036 26.9375V25.942ZM169.927 27.4952C169.927 27.9929 169.948 28.4791 170 28.8695H169.182L169.098 28.1466H169.067C168.798 28.5979 168.249 29 167.533 29C166.518 29 166 28.1823 166 27.3521C166 25.9642 167.078 25.2055 169.016 25.2181V25.1002C169.016 24.6256 168.902 23.7587 167.875 23.7713C167.399 23.7713 166.912 23.9249 166.559 24.1975L166.352 23.4997C166.766 23.201 167.378 23 168.011 23C169.553 23 169.927 24.1975 169.927 25.3486V27.4952Z" fill="#FFFFFE"/>
<path fill-rule="evenodd" clip-rule="evenodd" d="M171 28H172V20H171V28Z" fill="#FFFFFE"/>
<path fill-rule="evenodd" clip-rule="evenodd" d="M82.9515 40.1358C83.1903 40.1824 83.5348 40.1824 83.9031 40.1824C85.9137 40.1948 87.0062 38.9669 87.0062 36.8425C87.0159 34.9855 86.0432 33.8062 84.0546 33.8062C83.5674 33.8062 83.2 33.8519 82.9515 33.9109V40.1358ZM82 33.1637C82.5841 33.0695 83.2643 33 84.0106 33C85.3621 33 86.3242 33.3379 86.963 33.9804C87.622 34.6228 88 35.5337 88 36.8073C88 38.0922 87.622 39.144 86.9515 39.8673C86.2599 40.6031 85.1357 41 83.7189 41C83.0388 41 82.4872 40.9762 82 40.9067V33.1637Z" fill="#FFFFFE"/>
<path fill-rule="evenodd" clip-rule="evenodd" d="M91.4944 41.2171C92.3824 41.2171 93.0491 40.2806 93.0491 38.9768C93.0491 38.0035 92.6158 36.7829 91.5159 36.7829C90.4272 36.7829 89.9518 37.9204 89.9518 39.0106C89.9518 40.27 90.5857 41.2171 91.4841 41.2171H91.4944ZM91.4522 42C90.0792 42 89 40.8624 89 39.0464C89 37.126 90.1318 36 91.5383 36C93.0069 36 94 37.1965 94 38.942C94 41.076 92.6796 42 91.4634 42H91.4522Z" fill="#FFFFFE"/>
<path fill-rule="evenodd" clip-rule="evenodd" d="M97.9795 40.7233C97.7389 40.8322 97.2046 41 96.5244 41C94.9942 41 94 40.0205 94 38.5545C94 37.0787 95.0685 36 96.7224 36C97.2678 36 97.7491 36.1291 98 36.2574L97.7909 36.9206C97.5707 36.8117 97.2259 36.6939 96.7224 36.6939C95.5609 36.6939 94.9328 37.5144 94.9328 38.5044C94.9328 39.6138 95.6855 40.2972 96.6917 40.2972C97.2148 40.2972 97.5605 40.1778 97.8225 40.0689L97.9795 40.7233Z" fill="#FFFFFE"/>
<path fill-rule="evenodd" clip-rule="evenodd" d="M104.006 38.0392C104.017 37.4848 103.736 36.6238 102.588 36.6238C101.534 36.6238 101.089 37.4356 101.007 38.0392H104.006ZM100.996 38.663C101.018 39.8315 101.896 40.3165 102.928 40.3165C103.666 40.3165 104.122 40.2084 104.497 40.0696L104.684 40.6934C104.321 40.8321 103.689 41 102.788 41C101.054 41 100 40.0203 100 38.5847C100 37.1378 101.018 36 102.67 36C104.52 36 105 37.3759 105 38.2579C105 38.4346 104.989 38.5638 104.966 38.663H100.996Z" fill="#FFFFFE"/>
<path fill-rule="evenodd" clip-rule="evenodd" d="M106.049 37.4342C106.049 36.9188 106.036 36.5146 106 36.1111H106.938L106.999 36.9089H107.022C107.311 36.4536 107.983 36 108.945 36C109.75 36 111 36.4034 111 38.0805V41H109.942V38.1818C109.942 37.3939 109.593 36.727 108.597 36.727C107.911 36.727 107.371 37.1419 107.179 37.6359C107.13 37.7471 107.107 37.9084 107.107 38.0501V41H106.049V37.4342Z" fill="#FFFFFE"/>
<path fill-rule="evenodd" clip-rule="evenodd" d="M114.979 40.7233C114.738 40.8322 114.204 41 113.524 41C111.995 41 111 40.0205 111 38.5545C111 37.0787 112.069 36 113.722 36C114.267 36 114.748 36.1291 115 36.2574L114.79 36.9206C114.571 36.8117 114.225 36.6939 113.722 36.6939C112.561 36.6939 111.933 37.5144 111.933 38.5044C111.933 39.6138 112.685 40.2972 113.691 40.2972C114.214 40.2972 114.56 40.1778 114.822 40.0689L114.979 40.7233Z" fill="#FFFFFE"/>
<path fill-rule="evenodd" clip-rule="evenodd" d="M116.102 41H116.908V35.2642H116.102V41ZM116.487 34.2924C116.193 34.2924 116 33.9969 116 33.652C116 33.285 116.202 33 116.505 33C116.798 33 117 33.285 117 33.652C117 33.9969 116.807 34.2924 116.495 34.2924H116.487Z" fill="#FFFFFE"/>
<path fill-rule="evenodd" clip-rule="evenodd" d="M122.036 38.941C121.041 38.9169 119.912 39.1189 119.912 40.2332C119.912 40.9214 120.305 41.2287 120.761 41.2287C121.424 41.2287 121.849 40.7552 121.994 40.269C122.026 40.1627 122.036 40.0438 122.036 39.9375V38.941ZM122.927 40.4942C122.927 40.9929 122.948 41.4781 123 41.8695H122.182L122.098 41.1466H122.067C121.798 41.597 121.249 42 120.533 42C119.518 42 119 41.1814 119 40.3521C119 38.9633 120.077 38.2046 122.016 38.2181V38.0992C122.016 37.6256 121.902 36.7587 120.875 36.7703C120.399 36.7703 119.912 36.9249 119.559 37.1965L119.352 36.4987C119.766 36.201 120.378 36 121.011 36C122.553 36 122.927 37.1965 122.927 38.3486V40.4942Z" fill="#FFFFFE"/>
<path fill-rule="evenodd" clip-rule="evenodd" d="M128.994 37.6946C128.994 37.5607 128.982 37.4052 128.949 37.2722C128.808 36.6609 128.282 36.1517 127.56 36.1517C126.564 36.1517 125.974 37.0389 125.974 38.2155C125.974 39.3143 126.51 40.2123 127.538 40.2123C128.184 40.2123 128.775 39.7683 128.949 39.0366C128.982 38.9145 128.994 38.7807 128.994 38.626V37.6946ZM129.956 33V39.4906C129.956 39.9699 129.967 40.5116 130 40.8788H129.136L129.091 39.9464H129.07C128.775 40.5451 128.14 41 127.275 41C125.995 41 125 39.9021 125 38.2706C124.988 36.4728 126.094 35.3857 127.375 35.3857C128.195 35.3857 128.742 35.7737 128.972 36.196H128.994V33H129.956Z" fill="#FFFFFE"/>
<path fill-rule="evenodd" clip-rule="evenodd" d="M135.005 38.0392C135.016 37.4848 134.735 36.6238 133.588 36.6238C132.534 36.6238 132.088 37.4356 132.007 38.0392H135.005ZM131.995 38.663C132.018 39.8315 132.896 40.3165 133.926 40.3165C134.665 40.3165 135.122 40.2084 135.496 40.0696L135.684 40.6934C135.32 40.8321 134.689 41 133.787 41C132.054 41 131 40.0203 131 38.5847C131 37.1378 132.018 36 133.67 36C135.52 36 136 37.3759 136 38.2579C136 38.4346 135.989 38.5638 135.965 38.663H131.995Z" fill="#FFFFFE"/>
<path fill-rule="evenodd" clip-rule="evenodd" d="M141.044 36.9707C141.274 37.0302 141.562 37.0533 141.912 37.0533C143.174 37.0533 143.943 36.4522 143.943 35.368C143.943 34.3204 143.185 33.8133 142.031 33.8133C141.574 33.8133 141.227 33.8479 141.044 33.8959V36.9707ZM140 33.1652C140.504 33.0701 141.165 33 142.007 33C143.041 33 143.799 33.2343 144.279 33.6607C144.724 34.0371 145 34.6142 145 35.3104C145 36.0287 144.784 36.5933 144.363 37.0062C143.811 37.5843 142.908 37.8772 141.886 37.8772C141.574 37.8772 141.286 37.8666 141.044 37.8071V41H140V33.1652Z" fill="#FFFFFE"/>
<path fill-rule="evenodd" clip-rule="evenodd" d="M146.05 37.6359C146.05 37.0604 146.037 36.5656 146 36.1103H146.951L147.001 37.0703H147.036C147.309 36.4133 147.975 36 148.703 36C148.814 36 148.9 36.0091 149 36.0198V36.8587C148.888 36.848 148.778 36.8381 148.629 36.8381C147.865 36.8381 147.321 37.3132 147.174 37.9694C147.149 38.1011 147.136 38.2419 147.136 38.3835V41H146.05V37.6359Z" fill="#FFFFFE"/>
<path fill-rule="evenodd" clip-rule="evenodd" d="M152.005 38.0392C152.016 37.4848 151.735 36.6238 150.588 36.6238C149.534 36.6238 149.089 37.4356 149.007 38.0392H152.005ZM148.995 38.663C149.018 39.8315 149.896 40.3165 150.927 40.3165C151.665 40.3165 152.122 40.2084 152.496 40.0696L152.684 40.6934C152.32 40.8321 151.689 41 150.787 41C149.054 41 148 40.0203 148 38.5847C148 37.1378 149.018 36 150.67 36C152.52 36 153 37.3759 153 38.2579C153 38.4346 152.989 38.5638 152.965 38.663H148.995Z" fill="#FFFFFE"/>
<path fill-rule="evenodd" clip-rule="evenodd" d="M156.984 38.2848C156.984 38.1255 156.973 37.9773 156.929 37.8412C156.752 37.2503 156.29 36.7724 155.572 36.7724C154.646 36.7724 153.983 37.5791 153.983 38.8636C153.983 39.9324 154.523 40.8419 155.561 40.8419C156.167 40.8419 156.708 40.4538 156.906 39.8083C156.963 39.6471 156.984 39.4545 156.984 39.273V38.2848ZM157.956 40.8178C157.956 42.0903 157.702 42.8525 157.193 43.3406C156.665 43.8296 155.915 44 155.242 44C154.601 44 153.894 43.8416 153.465 43.5453L153.707 42.7729C154.06 43.0118 154.612 43.2156 155.274 43.2156C156.267 43.2156 156.996 42.6821 156.996 41.2836V40.6816H156.973C156.686 41.1938 156.103 41.6022 155.274 41.6022C153.951 41.6022 153 40.4427 153 38.909C153 37.0456 154.182 36 155.417 36C156.344 36 156.842 36.489 157.084 36.9539H157.106L157.139 36.125H158C157.967 36.5103 157.956 36.966 157.956 37.6245V40.8178Z" fill="#FFFFFE"/>
<path fill-rule="evenodd" clip-rule="evenodd" d="M160.051 37.6359C160.051 37.0604 160.037 36.5656 160 36.1103H160.951L161 37.0703H161.036C161.309 36.4133 161.975 36 162.703 36C162.814 36 162.9 36.0091 163 36.0198V36.8587C162.887 36.848 162.777 36.8381 162.628 36.8381C161.864 36.8381 161.321 37.3132 161.173 37.9694C161.149 38.1011 161.136 38.2419 161.136 38.3835V41H160.051V37.6359Z" fill="#FFFFFE"/>
<path fill-rule="evenodd" clip-rule="evenodd" d="M166.036 38.941C165.041 38.9169 163.913 39.1189 163.913 40.2332C163.913 40.9214 164.306 41.2287 164.762 41.2287C165.425 41.2287 165.849 40.7552 165.995 40.269C166.026 40.1627 166.036 40.0438 166.036 39.9375V38.941ZM166.927 40.4942C166.927 40.9929 166.948 41.4781 167 41.8695H166.182L166.098 41.1466H166.067C165.799 41.597 165.249 42 164.534 42C163.519 42 163 41.1814 163 40.3521C163 38.9633 164.078 38.2046 166.016 38.2181V38.0992C166.016 37.6256 165.902 36.7587 164.876 36.7703C164.4 36.7703 163.913 36.9249 163.56 37.1965L163.353 36.4987C163.767 36.201 164.379 36 165.01 36C166.553 36 166.927 37.1965 166.927 38.3486V40.4942Z" fill="#FFFFFE"/>
<path fill-rule="evenodd" clip-rule="evenodd" d="M171.994 37.6946C171.994 37.5607 171.982 37.4052 171.95 37.2722C171.808 36.6609 171.282 36.1517 170.561 36.1517C169.564 36.1517 168.974 37.0389 168.974 38.2155C168.974 39.3143 169.51 40.2123 170.538 40.2123C171.184 40.2123 171.775 39.7683 171.95 39.0366C171.982 38.9145 171.994 38.7807 171.994 38.626V37.6946ZM172.956 33V39.4906C172.956 39.9699 172.967 40.5116 173 40.8788H172.136L172.091 39.9464H172.071C171.775 40.5451 171.14 41 170.276 41C168.995 41 168 39.9021 168 38.2706C167.989 36.4728 169.094 35.3857 170.375 35.3857C171.195 35.3857 171.743 35.7737 171.972 36.196H171.994V33H172.956Z" fill="#FFFFFE"/>
<path fill-rule="evenodd" clip-rule="evenodd" d="M177.495 41.2171C178.382 41.2171 179.049 40.2806 179.049 38.9768C179.049 38.0035 178.616 36.7829 177.516 36.7829C176.427 36.7829 175.952 37.9204 175.952 39.0106C175.952 40.27 176.586 41.2171 177.484 41.2171H177.495ZM177.453 42C176.079 42 175 40.8624 175 39.0464C175 37.126 176.131 36 177.538 36C179.007 36 180 37.1965 180 38.942C180 41.076 178.679 42 177.463 42H177.453Z" fill="#FFFFFE"/>
<path fill-rule="evenodd" clip-rule="evenodd" d="M84.3765 54L82 46H83.0209L84.1496 49.94C84.4519 51.0206 84.7209 52.0053 84.9251 52.932H84.9452C85.1503 52.0053 85.4412 50.9973 85.7742 49.9526L86.9993 46H88L85.4088 54H84.3765Z" fill="#FFFFFE"/>
<path fill-rule="evenodd" clip-rule="evenodd" d="M88.1016 54H88.9088V48.2632H88.1016V54ZM88.4865 47.2915C88.1936 47.2915 88 46.9959 88 46.652C88 46.284 88.2025 46 88.5052 46C88.7982 46 89 46.284 89 46.652C89 46.9959 88.8079 47.2915 88.4963 47.2915H88.4865Z" fill="#FFFFFE"/>
<path fill-rule="evenodd" clip-rule="evenodd" d="M91.049 49.434C91.049 48.9195 91.0353 48.5153 91 48.1111H91.9383L91.998 48.9096H92.0225C92.3105 48.4552 92.9833 48 93.9442 48C94.7493 48 96 48.4042 96 50.0802V53H94.9432V50.1814C94.9432 49.3936 94.5935 48.7269 93.5975 48.7269C92.9109 48.7269 92.3702 49.1418 92.1783 49.6365C92.1303 49.7476 92.1058 49.909 92.1058 50.0497V53H91.049V49.434Z" fill="#FFFFFE"/>
<path fill-rule="evenodd" clip-rule="evenodd" d="M99.9787 52.7225C99.738 52.8314 99.2046 53 98.5236 53C96.9942 53 96 52.0198 96 50.554C96 49.0794 97.0685 48 98.7216 48C99.2669 48 99.7491 48.1299 100 48.259L99.7909 48.9213C99.5707 48.8116 99.2251 48.6938 98.7216 48.6938C97.5609 48.6938 96.9328 49.5142 96.9328 50.5048C96.9328 51.6133 97.6855 52.2974 98.6917 52.2974C99.214 52.2974 99.5605 52.1772 99.8225 52.0682L99.9787 52.7225Z" fill="#FFFFFE"/>
<path fill-rule="evenodd" clip-rule="evenodd" d="M105.952 51.5457C105.952 52.0609 105.964 52.5045 106 52.8889H105.053L104.992 52.0914H104.969C104.701 52.4848 104.071 53 103.027 53C102.104 53 101 52.5654 101 50.8584V48H102.068V50.6979C102.068 51.6272 102.42 52.2626 103.379 52.2626C104.094 52.2626 104.592 51.8477 104.786 51.4453C104.848 51.3226 104.884 51.1613 104.884 50.9901V48H105.952V51.5457Z" fill="#FFFFFE"/>
<path fill-rule="evenodd" clip-rule="evenodd" d="M107 54H108V46H107V54Z" fill="#FFFFFE"/>
<path fill-rule="evenodd" clip-rule="evenodd" d="M111.036 50.9406C110.042 50.9174 108.913 51.1184 108.913 52.2335C108.913 52.9206 109.306 53.2298 109.761 53.2298C110.425 53.2298 110.85 52.7544 110.994 52.2693C111.026 52.162 111.036 52.0432 111.036 51.9369V50.9406ZM111.927 52.4944C111.927 52.9921 111.948 53.4782 112 53.8695H111.182L111.098 53.1467H111.067C110.798 53.5961 110.249 54 109.534 54C108.518 54 108 53.1825 108 52.3524C108 50.9638 109.078 50.2052 111.016 50.2177V50.0989C111.016 49.6254 110.902 48.7586 109.875 48.7702C109.399 48.7702 108.913 48.9248 108.559 49.1983L108.352 48.4986C108.766 48.202 109.379 48 110.011 48C111.554 48 111.927 49.1983 111.927 50.3482V52.4944Z" fill="#FFFFFE"/>
<path fill-rule="evenodd" clip-rule="evenodd" d="M118.979 52.7225C118.738 52.8314 118.204 53 117.524 53C115.995 53 115 52.0198 115 50.554C115 49.0794 116.069 48 117.722 48C118.267 48 118.748 48.1299 119 48.259L118.79 48.9213C118.57 48.8116 118.225 48.6938 117.722 48.6938C116.561 48.6938 115.933 49.5142 115.933 50.5048C115.933 51.6133 116.685 52.2974 117.691 52.2974C118.214 52.2974 118.561 52.1772 118.822 52.0682L118.979 52.7225Z" fill="#FFFFFE"/>
<path fill-rule="evenodd" clip-rule="evenodd" d="M120.102 54H120.908V48.2632H120.102V54ZM120.486 47.2915C120.193 47.2915 120 46.9959 120 46.652C120 46.284 120.202 46 120.504 46C120.797 46 121 46.284 121 46.652C121 46.9959 120.807 47.2915 120.495 47.2915H120.486Z" fill="#FFFFFE"/>
<path fill-rule="evenodd" clip-rule="evenodd" d="M124.89 46L123.6 47.6261H122.945L123.875 46H124.89ZM123.495 53.2499C124.382 53.2499 125.049 52.3517 125.049 51.1024C125.049 50.1709 124.616 49.0003 123.516 49.0003C122.427 49.0003 121.952 50.0912 121.952 51.1358C121.952 52.3415 122.586 53.2499 123.484 53.2499H123.495ZM123.453 54C122.079 54 121 52.9091 121 51.17C121 49.33 122.131 48.2503 123.538 48.2503C125.007 48.2503 126 49.3985 126 51.0682C126 53.1138 124.679 54 123.463 54H123.453Z" fill="#FFFFFE"/>
<path fill-rule="evenodd" clip-rule="evenodd" d="M128.049 49.434C128.049 48.9195 128.035 48.5153 128 48.1111H128.938L128.998 48.9096H129.022C129.31 48.4552 129.983 48 130.944 48C131.749 48 133 48.4042 133 50.0802V53H131.943V50.1814C131.943 49.3936 131.594 48.7269 130.597 48.7269C129.911 48.7269 129.37 49.1418 129.178 49.6365C129.13 49.7476 129.106 49.909 129.106 50.0497V53H128.049V49.434Z" fill="#FFFFFE"/>
<path fill-rule="evenodd" clip-rule="evenodd" d="M138.979 52.7225C138.738 52.8314 138.204 53 137.524 53C135.995 53 135 52.0198 135 50.554C135 49.0794 136.069 48 137.722 48C138.267 48 138.748 48.1299 139 48.259L138.79 48.9213C138.571 48.8116 138.225 48.6938 137.722 48.6938C136.561 48.6938 135.933 49.5142 135.933 50.5048C135.933 51.6133 136.685 52.2974 137.691 52.2974C138.214 52.2974 138.56 52.1772 138.822 52.0682L138.979 52.7225Z" fill="#FFFFFE"/>
<path fill-rule="evenodd" clip-rule="evenodd" d="M142.495 53.2173C143.382 53.2173 144.049 52.2799 144.049 50.9763C144.049 50.0042 143.616 48.7827 142.516 48.7827C141.427 48.7827 140.952 49.9211 140.952 51.0111C140.952 52.2693 141.586 53.2173 142.484 53.2173H142.495ZM142.453 54C141.079 54 140 52.8617 140 51.0469C140 49.1268 141.131 48 142.538 48C144.007 48 145 49.1983 145 50.9406C145 53.0762 143.679 54 142.463 54H142.453Z" fill="#FFFFFE"/>
<path fill-rule="evenodd" clip-rule="evenodd" d="M147.05 49.434C147.05 48.9195 147.036 48.5153 147 48.1111H147.938L147.999 48.9096H148.022C148.311 48.4552 148.984 48 149.945 48C150.75 48 152 48.4042 152 50.0802V53H150.942V50.1814C150.942 49.3936 150.594 48.7269 149.597 48.7269C148.911 48.7269 148.371 49.1418 148.179 49.6365C148.131 49.7476 148.107 49.909 148.107 50.0497V53H147.05V49.434Z" fill="#FFFFFE"/>
<path fill-rule="evenodd" clip-rule="evenodd" d="M158.006 50.0389C158.017 49.4854 157.735 48.6237 156.588 48.6237C155.534 48.6237 155.089 49.4354 155.007 50.0389H158.006ZM154.996 50.6626C155.018 51.8317 155.896 52.3158 156.927 52.3158C157.666 52.3158 158.122 52.2077 158.497 52.0689L158.684 52.6926C158.321 52.8314 157.689 53 156.788 53C155.054 53 154 52.0197 154 50.5843C154 49.1385 155.018 48 156.67 48C158.52 48 159 49.3757 159 50.2575C159 50.435 158.989 50.5633 158.966 50.6626H154.996Z" fill="#FFFFFE"/>
<path fill-rule="evenodd" clip-rule="evenodd" d="M161 54H162V46H161V54Z" fill="#FFFFFE"/>
<path fill-rule="evenodd" clip-rule="evenodd" d="M171.814 50.4856C171.756 49.3819 171.686 48.0169 171.686 47.0322H171.663C171.384 47.9579 171.069 48.9775 170.674 50.0706L169.291 53.9526H168.523L167.244 50.1432C166.872 49.0143 166.569 47.9811 166.349 47.0322H166.325C166.302 48.0295 166.243 49.3712 166.174 50.5688L165.965 54H165L165.546 46H166.837L168.174 49.8694C168.5 50.8542 168.755 51.7451 168.964 52.5751H168.988C169.197 51.7683 169.477 50.8784 169.825 49.8694L171.221 46H172.512L173 54H172L171.814 50.4856Z" fill="#FFFFFE"/>
<path fill-rule="evenodd" clip-rule="evenodd" d="M178.005 50.0389C178.017 49.4854 177.735 48.6237 176.588 48.6237C175.534 48.6237 175.089 49.4354 175.007 50.0389H178.005ZM174.996 50.6626C175.018 51.8317 175.896 52.3158 176.927 52.3158C177.667 52.3158 178.122 52.2077 178.497 52.0689L178.684 52.6926C178.321 52.8314 177.689 53 176.788 53C175.054 53 174 52.0197 174 50.5843C174 49.1385 175.018 48 176.67 48C178.52 48 179 49.3757 179 50.2575C179 50.435 178.989 50.5633 178.965 50.6626H174.996Z" fill="#FFFFFE"/>
<path fill-rule="evenodd" clip-rule="evenodd" d="M182.994 50.694C182.994 50.5602 182.982 50.4056 182.949 50.2726C182.808 49.6614 182.282 49.1523 181.561 49.1523C180.564 49.1523 179.974 50.0384 179.974 51.2149C179.974 52.3136 180.51 53.2124 181.538 53.2124C182.184 53.2124 182.775 52.7684 182.949 52.0359C182.982 51.9148 182.994 51.7809 182.994 51.6263V50.694ZM183.956 46V52.4917C183.956 52.9691 183.967 53.5117 184 53.8779H183.136L183.091 52.9456H183.07C182.775 53.5443 182.14 54 181.275 54C179.995 54 179 52.9013 179 51.2709C178.988 49.4733 180.094 48.3854 181.375 48.3854C182.195 48.3854 182.742 48.7743 182.972 49.1966H182.994V46H183.956Z" fill="#FFFFFE"/>
<path fill-rule="evenodd" clip-rule="evenodd" d="M185.102 54H185.908V48.2632H185.102V54ZM185.487 47.2915C185.194 47.2915 185 46.9959 185 46.652C185 46.284 185.203 46 185.504 46C185.798 46 186 46.284 186 46.652C186 46.9959 185.808 47.2915 185.495 47.2915H185.487Z" fill="#FFFFFE"/>
<path fill-rule="evenodd" clip-rule="evenodd" d="M190.494 53.2173C191.382 53.2173 192.049 52.2799 192.049 50.9763C192.049 50.0042 191.615 48.7827 190.516 48.7827C189.427 48.7827 188.952 49.9211 188.952 51.0111C188.952 52.2693 189.586 53.2173 190.484 53.2173H190.494ZM190.452 54C189.078 54 188 52.8617 188 51.0469C188 49.1268 189.132 48 190.537 48C192.007 48 193 49.1983 193 50.9406C193 53.0762 191.679 54 190.463 54H190.452Z" fill="#FFFFFE"/>
<path fill-rule="evenodd" clip-rule="evenodd" d="M74 28H79V23H74V28Z" fill="#FFFFFE"/>
<path fill-rule="evenodd" clip-rule="evenodd" d="M74 41H79V36H74V41Z" fill="#FFFFFE"/>
<path fill-rule="evenodd" clip-rule="evenodd" d="M74 53H79V48H74V53Z" fill="#FFFFFE"/>
<path d="M64 15V57" stroke="#FFFFFE" stroke-width="0.706"/>
<path fill-rule="evenodd" clip-rule="evenodd" d="M1.04641 69.9701C1.2748 70.0299 1.56233 70.0525 1.91083 70.0525C3.17379 70.0525 3.94359 69.4526 3.94359 68.3685C3.94359 67.3197 3.18562 66.8131 2.03094 66.8131C1.57416 66.8131 1.22657 66.8474 1.04641 66.8955V69.9701ZM0 66.165C0.505005 66.0707 1.16651 66 2.00819 66C3.04004 66 3.79709 66.2357 4.28025 66.6599C4.72429 67.036 5 67.6153 5 68.3096C5 69.0284 4.78344 69.594 4.36306 70.0064C3.80983 70.5838 2.90901 70.8774 1.88808 70.8774C1.57416 70.8774 1.28662 70.8666 1.04641 70.8067V74H0V66.165Z" fill="#FFFFFE"/>
<path fill-rule="evenodd" clip-rule="evenodd" d="M8.9928 72.3478C10.0579 72.3478 10.858 71.5672 10.858 70.4802C10.858 69.6708 10.3374 68.6522 9.01777 68.6522C7.7125 68.6522 7.14103 69.6008 7.14103 70.5107C7.14103 71.5573 7.90171 72.3478 8.97935 72.3478H8.9928ZM8.94093 73C7.29182 73 6 72.0514 6 70.5395C6 68.9387 7.35521 68 9.0437 68C10.8071 68 12 68.9988 12 70.4506C12 72.2284 10.4133 73 8.95534 73H8.94093Z" fill="#FFFFFE"/>
<path fill-rule="evenodd" clip-rule="evenodd" d="M14.0495 69.6366C14.0495 69.0608 14.0364 68.5658 14 68.1111H14.9505L14.9991 69.0709H15.0374C15.3093 68.4151 15.9748 68 16.7037 68C16.814 68 16.9009 68.0101 17 68.0202V68.8587C16.8879 68.8486 16.7766 68.8385 16.6299 68.8385C15.8636 68.8385 15.3215 69.3134 15.172 69.97C15.1486 70.1022 15.1355 70.2428 15.1355 70.3842V73H14.0495V69.6366Z" fill="#FFFFFE"/>
<path fill-rule="evenodd" clip-rule="evenodd" d="M26.8066 70.9729V68.3018C26.8066 67.8833 26.8199 67.4658 26.8447 67.0473H26.8066C26.5546 67.514 26.3522 67.8597 26.126 68.228L24.1215 70.9494V70.9729H26.8066ZM26.8066 74V71.81H23V71.1083L26.6557 66H27.8546V70.9729H29V71.81H27.8546V74H26.8066Z" fill="#FFFFFE"/>
<path fill-rule="evenodd" clip-rule="evenodd" d="M39.7946 70.451C38.55 70.4321 37.1387 70.5992 37.1387 71.5287C37.1387 72.1001 37.632 72.357 38.2009 72.357C39.0316 72.357 39.5632 71.9626 39.7426 71.5575C39.7819 71.4678 39.7946 71.369 39.7946 71.2809V70.451ZM40.9088 71.7453C40.9088 72.1602 40.9353 72.5645 41 72.8905H39.977L39.8731 72.2887H39.8348C39.4965 72.6641 38.8109 73 37.9164 73C36.6473 73 36 72.3183 36 71.6267C36 70.4699 37.3466 69.8385 39.7701 69.8483V69.7487C39.7701 69.3544 39.6269 68.6331 38.3441 68.643C37.7477 68.643 37.1387 68.7714 36.7003 68.9987L36.4394 68.4158C36.9582 68.1696 37.7232 68 38.5128 68C40.4439 68 40.9088 68.9987 40.9088 69.9562V71.7453Z" fill="#FFFFFE"/>
<path fill-rule="evenodd" clip-rule="evenodd" d="M43.0339 67.2702C43.0102 66.4996 43.3342 66.0356 43.8511 66.0356C44.115 66.0356 44.3198 66.1543 44.5956 66.2978C44.7876 66.4036 44.956 66.4996 45.1116 66.4996C45.2927 66.4996 45.4119 66.3917 45.4365 66H46.0025C46.0144 66.7845 45.7505 67.199 45.1844 67.199C44.9205 67.199 44.692 67.0803 44.4399 66.9497C44.1988 66.8062 44.0659 66.737 43.9239 66.737C43.7301 66.737 43.6345 66.9378 43.6099 67.2702H43.0339ZM42.0473 69.8096C42.0473 69.2042 42.0346 68.7313 42 68.2555H42.9374L42.9965 69.1923H43.0211C43.3105 68.6591 43.9831 68.1239 44.9441 68.1239C45.7505 68.1239 47 68.5997 47 70.5703V74H45.9416V70.689C45.9416 69.7631 45.5939 68.9806 44.5956 68.9806C43.9112 68.9806 43.3697 69.4653 43.1776 70.048C43.1294 70.1776 43.1058 70.3685 43.1058 70.5357V74H42.0473V69.8096Z" fill="#FFFFFE"/>
<path fill-rule="evenodd" clip-rule="evenodd" d="M51.9942 72.3478C53.0592 72.3478 53.8582 71.5672 53.8582 70.4802C53.8582 69.6708 53.3377 68.6522 52.0182 68.6522C50.7132 68.6522 50.1408 69.6008 50.1408 70.5107C50.1408 71.5573 50.9014 72.3478 51.9798 72.3478H51.9942ZM51.9424 73C50.2935 73 49 72.0514 49 70.5395C49 68.9387 50.3569 68 52.0432 68C53.8063 68 55 68.9988 55 70.4506C55 72.2284 53.4145 73 51.9558 73H51.9424Z" fill="#FFFFFE"/>
<path fill-rule="evenodd" clip-rule="evenodd" d="M56.2646 72.0106C56.6058 72.169 57.1905 72.3473 57.7455 72.3473C58.544 72.3473 58.9226 72.0403 58.9226 71.6343C58.9226 71.2184 58.6063 71.0005 57.7973 70.762C56.6825 70.4459 56.163 69.9706 56.163 69.4062C56.163 68.6338 56.9739 68 58.2785 68C58.8986 68 59.4421 68.1287 59.7728 68.2979L59.5054 68.9218C59.2648 68.812 58.8229 68.6437 58.2535 68.6437C57.595 68.6437 57.2404 68.9407 57.2404 69.2981C57.2404 69.6933 57.595 69.8716 58.3925 70.1192C59.4421 70.4253 60 70.8421 60 71.555C60 72.4058 59.1526 73 57.7215 73C57.0506 73 56.4304 72.8622 56 72.6641L56.2646 72.0106Z" fill="#FFFFFE"/>
<path fill-rule="evenodd" clip-rule="evenodd" d="M68 65H69.0685V68.4017H69.0924C69.2624 68.1209 69.5298 67.8617 69.8569 67.7039C70.172 67.5245 70.5487 67.4212 70.9493 67.4212C71.7376 67.4212 73 67.873 73 69.7542V73H71.9315V69.8565C71.9315 68.9765 71.5805 68.2449 70.5726 68.2449C69.8807 68.2449 69.346 68.6948 69.1393 69.2376C69.0786 69.371 69.0685 69.5184 69.0685 69.711V73H68V65Z" fill="#FFFFFE"/>
<path fill-rule="evenodd" clip-rule="evenodd" d="M77.7946 70.451C76.552 70.4321 75.1406 70.5992 75.1406 71.5287C75.1406 72.1001 75.633 72.357 76.1999 72.357C77.0306 72.357 77.5622 71.9626 77.7436 71.5575C77.7829 71.4678 77.7946 71.369 77.7946 71.2809V70.451ZM78.9098 71.7453C78.9098 72.1602 78.9353 72.5645 79 72.8905H77.977L77.8721 72.2887H77.8339C77.4974 72.6641 76.8109 73 75.9184 73C74.6483 73 74 72.3183 74 71.6267C74 70.4699 75.3476 69.8385 77.7701 69.8483V69.7487C77.7701 69.3544 77.6259 68.6331 76.3441 68.643C75.7477 68.643 75.1406 68.7714 74.6993 68.9987L74.4384 68.4158C74.9582 68.1696 75.7232 68 76.5137 68C78.4429 68 78.9098 68.9987 78.9098 69.9562V71.7453Z" fill="#FFFFFE"/>
<path fill-rule="evenodd" clip-rule="evenodd" d="M80.2655 72.0106C80.6068 72.169 81.1896 72.3473 81.7465 72.3473C82.5449 72.3473 82.9245 72.0403 82.9245 71.6343C82.9245 71.2184 82.6072 71.0005 81.7973 70.762C80.6844 70.4459 80.1649 69.9706 80.1649 69.4062C80.1649 68.6338 80.9739 68 82.2775 68C82.8967 68 83.4431 68.1287 83.7709 68.2979L83.5073 68.9218C83.2667 68.812 82.8229 68.6437 82.2526 68.6437C81.5941 68.6437 81.2413 68.9407 81.2413 69.2981C81.2413 69.6933 81.5941 69.8716 82.3925 70.1192C83.4431 70.4253 84 70.8421 84 71.555C84 72.4058 83.1517 73 81.7225 73C81.0496 73 80.4304 72.8622 80 72.6641L80.2655 72.0106Z" fill="#FFFFFE"/>
<path fill-rule="evenodd" clip-rule="evenodd" d="M88.2447 66V67.142H90V67.8002H88.2447V70.358C88.2447 70.9474 88.4821 71.2819 89.1635 71.2819C89.4979 71.2819 89.693 71.263 89.8745 71.2237L89.9314 71.8836C89.693 71.9418 89.3175 72 88.8418 72C88.2711 72 87.8112 71.8631 87.52 71.6377C87.1846 71.3712 87.0464 70.9474 87.0464 70.3875V67.8002H86V67.142H87.0464V66.2656L88.2447 66Z" fill="#FFFFFE"/>
<path fill-rule="evenodd" clip-rule="evenodd" d="M94.7946 70.451C93.552 70.4321 92.1406 70.5992 92.1406 71.5287C92.1406 72.1001 92.633 72.357 93.2009 72.357C94.0316 72.357 94.5632 71.9626 94.7436 71.5575C94.7819 71.4678 94.7946 71.369 94.7946 71.2809V70.451ZM95.9098 71.7453C95.9098 72.1602 95.9353 72.5645 96 72.8905H94.977L94.8731 72.2887H94.8329C94.4975 72.6641 93.8099 73 92.9184 73C91.6483 73 91 72.3183 91 71.6267C91 70.4699 92.3476 69.8385 94.7691 69.8483V69.7487C94.7691 69.3544 94.6269 68.6331 93.3431 68.643C92.7477 68.643 92.1406 68.7714 91.6993 68.9987L91.4394 68.4158C91.9592 68.1696 92.7222 68 93.5128 68C95.4429 68 95.9098 68.9987 95.9098 69.9562V71.7453Z" fill="#FFFFFE"/>
<path fill-rule="evenodd" clip-rule="evenodd" d="M102.049 69.4346C102.049 68.9193 102.036 68.5161 102 68.112H102.94L102.999 68.9092H103.022C103.31 68.4555 103.983 68 104.945 68C105.75 68 107 68.4041 107 70.082V73H105.942V70.183C105.942 69.3942 105.594 68.7282 104.596 68.7282C103.911 68.7282 103.372 69.1408 103.177 69.6366C103.129 69.7478 103.107 69.9094 103.107 70.0517V73H102.049V69.4346Z" fill="#FFFFFE"/>
<path fill-rule="evenodd" clip-rule="evenodd" d="M112.995 72.3478C114.059 72.3478 114.858 71.5672 114.858 70.4802C114.858 69.6708 114.338 68.6522 113.019 68.6522C111.713 68.6522 111.142 69.6008 111.142 70.5107C111.142 71.5573 111.902 72.3478 112.98 72.3478H112.995ZM112.942 73C111.294 73 110 72.0514 110 70.5395C110 68.9387 111.358 68 113.045 68C114.807 68 116 68.9988 116 70.4506C116 72.2284 114.415 73 112.955 73H112.942Z" fill="#FFFFFE"/>
<path fill-rule="evenodd" clip-rule="evenodd" d="M117.025 68L118.064 70.8001C118.238 71.265 118.38 71.6775 118.489 72.0908H118.522C118.641 71.6775 118.795 71.265 118.969 70.8001L119.997 68H121L118.927 73H118.006L116 68H117.025Z" fill="#FFFFFE"/>
<path fill-rule="evenodd" clip-rule="evenodd" d="M124.101 74H124.908V68.2637H124.101V74ZM124.486 67.2919C124.192 67.2919 124 66.9946 124 66.6528C124 66.2844 124.201 66 124.504 66C124.798 66 125 66.2844 125 66.6528C125 66.9946 124.807 67.2919 124.494 67.2919H124.486Z" fill="#FFFFFE"/>
<path fill-rule="evenodd" clip-rule="evenodd" d="M130.005 70.0404C130.016 69.486 129.735 68.6254 128.588 68.6254C127.534 68.6254 127.091 69.4365 127.009 70.0404H130.005ZM126.997 70.6642C127.02 71.8325 127.898 72.3177 128.927 72.3177C129.663 72.3177 130.121 72.2096 130.496 72.0693L130.682 72.6939C130.321 72.8317 129.69 73 128.788 73C127.056 73 126 72.0198 126 70.585C126 69.1394 127.02 68 128.671 68C130.52 68 131 69.3771 131 70.2583C131 70.4356 130.988 70.566 130.965 70.6642H126.997Z" fill="#FFFFFE"/>
<path fill-rule="evenodd" clip-rule="evenodd" d="M134.053 69.4346C134.053 68.9193 134.028 68.5161 134 68.112H134.996L135.049 68.8991H135.088C135.437 68.4344 136.018 68 137.064 68C137.906 68 138.551 68.4041 138.822 68.9808H138.85C139.043 68.6971 139.301 68.495 139.562 68.3443C139.935 68.1212 140.336 68 140.932 68C141.772 68 143 68.4252 143 70.1207V73H141.886V70.2327C141.886 69.2839 141.434 68.7282 140.53 68.7282C139.871 68.7282 139.379 69.1012 139.172 69.5255C139.12 69.6568 139.082 69.8185 139.082 69.9709V73H137.971V70.0618C137.971 69.2839 137.531 68.7282 136.665 68.7282C135.967 68.7282 135.437 69.1719 135.256 69.6164C135.191 69.7478 135.165 69.8993 135.165 70.0517V73H134.053V69.4346Z" fill="#FFFFFE"/>
<path fill-rule="evenodd" clip-rule="evenodd" d="M144.994 70.7258C144.994 70.8469 145.006 70.9699 145.026 71.08C145.21 71.757 145.772 72.2231 146.452 72.2231C147.455 72.2231 148.039 71.3908 148.039 70.1588C148.039 69.0712 147.499 68.1501 146.482 68.1501C145.835 68.1501 145.232 68.6171 145.047 69.3487C145.015 69.4708 144.994 69.6039 144.994 69.7593V70.7258ZM144.043 65H144.994V68.3609H145.015C145.351 67.7625 145.954 67.3843 146.798 67.3843C148.093 67.3843 149 68.4941 149 70.1154C149 72.0446 147.811 73 146.646 73C145.891 73 145.297 72.7003 144.896 71.9891H144.875L144.821 72.877H144C144.033 72.5117 144.043 71.9688 144.043 71.4906V65Z" fill="#FFFFFE"/>
<path fill-rule="evenodd" clip-rule="evenodd" d="M152.05 69.6366C152.05 69.0608 152.037 68.5658 152 68.1111H152.951L153.002 69.0709H153.039C153.309 68.4151 153.977 68 154.705 68C154.816 68 154.902 68.0101 155 68.0202V68.8587C154.888 68.8486 154.779 68.8385 154.631 68.8385C153.864 68.8385 153.321 69.3134 153.174 69.97C153.149 70.1022 153.137 70.2428 153.137 70.3842V73H152.05V69.6366Z" fill="#FFFFFE"/>
<path fill-rule="evenodd" clip-rule="evenodd" d="M160.005 70.0404C160.016 69.486 159.734 68.6254 158.587 68.6254C157.534 68.6254 157.09 69.4365 157.009 70.0404H160.005ZM156.995 70.6642C157.019 71.8325 157.898 72.3177 158.926 72.3177C159.664 72.3177 160.122 72.2096 160.495 72.0693L160.683 72.6939C160.32 72.8317 159.691 73 158.787 73C157.054 73 156 72.0198 156 70.585C156 69.1394 157.019 68 158.671 68C160.521 68 161 69.3771 161 70.2583C161 70.4356 160.987 70.566 160.965 70.6642H156.995Z" fill="#FFFFFE"/>
<path fill-rule="evenodd" clip-rule="evenodd" d="M167 74V73.3474L167.83 72.5364C169.831 70.6239 170.748 69.6071 170.748 68.4219C170.748 67.622 170.374 66.8836 169.206 66.8836C168.493 66.8836 167.903 67.2468 167.541 67.5484L167.203 66.7989C167.735 66.352 168.516 66 169.422 66C171.097 66 171.807 67.163 171.807 68.2867C171.807 69.7403 170.759 70.9134 169.107 72.5122L168.493 73.0922V73.1174H172V74H167Z" fill="#FFFFFE"/>
<path fill-rule="evenodd" clip-rule="evenodd" d="M177.501 73.1904C178.507 73.1904 178.992 71.9402 178.992 69.9638C178.992 68.0598 178.541 66.8086 177.501 66.8086C176.595 66.8086 176.007 68.0241 176.007 69.9638C175.984 71.9769 176.572 73.1904 177.488 73.1904H177.501ZM177.444 74C176.007 74 175.022 72.5841 175 70.0243C175 67.4178 176.075 66 177.569 66C179.107 66 180 67.4526 180 69.9162C180 72.5494 179.061 74 177.454 74H177.444Z" fill="#FFFFFE"/>
<path fill-rule="evenodd" clip-rule="evenodd" d="M182.824 67.0095H182.798L181.232 67.7594L181 66.9356L182.961 66H184V74H182.824V67.0095Z" fill="#FFFFFE"/>
<path fill-rule="evenodd" clip-rule="evenodd" d="M190.455 66.7986C189.609 66.7986 189.006 67.5852 189.006 68.6818C189.006 69.6482 189.565 70.3266 190.433 70.3266C191.105 70.3266 191.63 69.9799 191.904 69.5161C191.95 69.4217 191.985 69.3025 191.985 69.1357C191.997 67.7998 191.517 66.7986 190.467 66.7986H190.455ZM188.639 73.1384C188.857 73.1514 189.107 73.1384 189.449 73.0918C190.033 73.0202 190.581 72.77 191.002 72.3528C191.494 71.876 191.847 71.2086 191.985 70.2908H191.95C191.538 70.8162 190.945 71.1241 190.193 71.1241C188.857 71.1241 188 70.0763 188 68.7414C188 67.2872 189.029 66 190.545 66C192.063 66 193 67.2753 193 69.2658C193 70.9702 192.454 72.1611 191.722 72.9021C191.152 73.4732 190.365 73.8427 189.565 73.937C189.201 73.9847 188.868 74.0095 188.639 73.9966V73.1384Z" fill="#FFFFFE"/>
</g>
</svg>
