<svg width="55" height="54" viewBox="0 0 55 54" fill="none" xmlns="http://www.w3.org/2000/svg">
<path fill-rule="evenodd" clip-rule="evenodd" d="M1.899 52.103H53.1069V16.1069H1.899V52.103ZM40.6828 3.78812C40.2383 1.62822 38.3262 0 36.0337 0C35.5109 0 35.0901 0.425113 35.0901 0.948511C35.0901 1.47072 35.5109 1.89702 36.0337 1.89702C37.6043 1.89702 38.8822 3.16881 38.8822 4.73663C38.8822 6.30446 37.6043 7.57625 36.0337 7.57625C35.5109 7.57625 35.0901 8.00254 35.0901 8.52476C35.0901 9.04816 35.5109 9.47327 36.0337 9.47327C38.3262 9.47327 40.2383 7.84505 40.6828 5.68515H53.1069V14.2099H1.899V5.68515H18.0168C18.5408 5.68515 18.9663 5.25885 18.9663 4.73663C18.9663 4.21442 18.5408 3.78812 18.0168 3.78812H16.2945C16.688 2.68804 17.73 1.89702 18.9663 1.89702C20.5358 1.89702 21.8089 3.16881 21.8089 4.73663C21.8089 6.30446 20.5358 7.57625 18.9663 7.57625C18.4436 7.57625 18.0168 8.00254 18.0168 8.52476C18.0168 9.04816 18.4436 9.47327 18.9663 9.47327C21.5825 9.47327 23.7079 7.35007 23.7079 4.73663C23.7079 2.1232 21.5825 0 18.9663 0C16.6785 0 14.7617 1.62822 14.322 3.78812H0V54H55V3.78812H40.6828Z" fill="#4E658E"/>
<path fill-rule="evenodd" clip-rule="evenodd" d="M25.001 2.0025C26.6557 2.0025 27.9979 3.345 27.9979 5C27.9979 6.655 26.6557 7.9975 25.001 7.9975C24.4487 7.9975 24 8.4475 24 8.99875C24 9.55125 24.4487 10 25.001 10C27.7542 10 30 7.75875 30 5C30 2.24125 27.7542 0 25.001 0C24.4487 0 24 0.44875 24 1.00125C24 1.5525 24.4487 2.0025 25.001 2.0025Z" fill="#4E658E"/>
<path fill-rule="evenodd" clip-rule="evenodd" d="M31.001 2.0025C32.6507 2.0025 33.9979 3.345 33.9979 5C33.9979 6.655 32.6507 7.9975 31.001 7.9975C30.4449 7.9975 30 8.4475 30 8.99875C30 9.55125 30.4449 10 31.001 10C33.7542 10 36 7.75875 36 5C36 2.24125 33.7542 0 31.001 0C30.4449 0 30 0.44875 30 1.00125C30 1.5525 30.4449 2.0025 31.001 2.0025Z" fill="#4E658E"/>
<path fill-rule="evenodd" clip-rule="evenodd" d="M21 23C21 23.5518 20.5554 24 20.0031 24C19.4446 24 19 23.5518 19 23C19 22.4494 19.4446 22 20.0031 22C20.5554 22 21 22.4494 21 23Z" fill="#4E658E"/>
<path fill-rule="evenodd" clip-rule="evenodd" d="M28 23C28 23.5518 27.5518 24 27 24C26.4494 24 26 23.5518 26 23C26 22.4494 26.4494 22 27 22C27.5518 22 28 22.4494 28 23Z" fill="#4E658E"/>
<path fill-rule="evenodd" clip-rule="evenodd" d="M35 23C35 23.5518 34.5518 24 34 24C33.4494 24 33 23.5518 33 23C33 22.4494 33.4494 22 34 22C34.5518 22 35 22.4494 35 23Z" fill="#4E658E"/>
<path fill-rule="evenodd" clip-rule="evenodd" d="M43 23C43 23.5518 42.5557 24 41.9975 24C41.4456 24 41 23.5518 41 23C41 22.4494 41.4456 22 41.9975 22C42.5557 22 43 22.4494 43 23Z" fill="#4E658E"/>
<path fill-rule="evenodd" clip-rule="evenodd" d="M49 23C49 23.5518 48.5518 24 48 24C47.4494 24 47 23.5518 47 23C47 22.4494 47.4494 22 48 22C48.5518 22 49 22.4494 49 23Z" fill="#4E658E"/>
<path fill-rule="evenodd" clip-rule="evenodd" d="M9 31.0025C9 31.5544 8.55542 32 7.99687 32C7.44458 32 7 31.5544 7 31.0025C7 30.4456 7.44458 30 7.99687 30C8.55542 30 9 30.4456 9 31.0025Z" fill="#4E658E"/>
<path fill-rule="evenodd" clip-rule="evenodd" d="M16 31.0025C16 31.5544 15.5506 32 15 32C14.4494 32 14 31.5544 14 31.0025C14 30.4456 14.4494 30 15 30C15.5506 30 16 30.4456 16 31.0025Z" fill="#4E658E"/>
<path fill-rule="evenodd" clip-rule="evenodd" d="M21 31.0025C21 31.5544 20.5554 32 20.0031 32C19.4446 32 19 31.5544 19 31.0025C19 30.4456 19.4446 30 20.0031 30C20.5554 30 21 30.4456 21 31.0025Z" fill="#4E658E"/>
<path fill-rule="evenodd" clip-rule="evenodd" d="M28 31.0025C28 31.5544 27.5518 32 27 32C26.4494 32 26 31.5544 26 31.0025C26 30.4456 26.4494 30 27 30C27.5518 30 28 30.4456 28 31.0025Z" fill="#4E658E"/>
<path fill-rule="evenodd" clip-rule="evenodd" d="M35 31.0025C35 31.5544 34.5518 32 34 32C33.4494 32 33 31.5544 33 31.0025C33 30.4456 33.4494 30 34 30C34.5518 30 35 30.4456 35 31.0025Z" fill="#4E658E"/>
<path fill-rule="evenodd" clip-rule="evenodd" d="M43 31.0025C43 31.5544 42.5557 32 41.9975 32C41.4456 32 41 31.5544 41 31.0025C41 30.4456 41.4456 30 41.9975 30C42.5557 30 43 30.4456 43 31.0025Z" fill="#4E658E"/>
<path fill-rule="evenodd" clip-rule="evenodd" d="M49 31.0025C49 31.5544 48.5518 32 48 32C47.4494 32 47 31.5544 47 31.0025C47 30.4456 47.4494 30 48 30C48.5518 30 49 30.4456 49 31.0025Z" fill="#4E658E"/>
<path fill-rule="evenodd" clip-rule="evenodd" d="M9 37C9 37.5506 8.55542 38 7.99687 38C7.44458 38 7 37.5506 7 37C7 36.4494 7.44458 36 7.99687 36C8.55542 36 9 36.4494 9 37Z" fill="#4E658E"/>
<path fill-rule="evenodd" clip-rule="evenodd" d="M16 37C16 37.5506 15.5506 38 15 38C14.4494 38 14 37.5506 14 37C14 36.4494 14.4494 36 15 36C15.5506 36 16 36.4494 16 37Z" fill="#4E658E"/>
<path fill-rule="evenodd" clip-rule="evenodd" d="M21 37C21 37.5506 20.5554 38 20.0031 38C19.4446 38 19 37.5506 19 37C19 36.4494 19.4446 36 20.0031 36C20.5554 36 21 36.4494 21 37Z" fill="#4E658E"/>
<path fill-rule="evenodd" clip-rule="evenodd" d="M28 37C28 37.5506 27.5518 38 27 38C26.4494 38 26 37.5506 26 37C26 36.4494 26.4494 36 27 36C27.5518 36 28 36.4494 28 37Z" fill="#4E658E"/>
<path fill-rule="evenodd" clip-rule="evenodd" d="M35 37C35 37.5506 34.5518 38 34 38C33.4494 38 33 37.5506 33 37C33 36.4494 33.4494 36 34 36C34.5518 36 35 36.4494 35 37Z" fill="#4E658E"/>
<path fill-rule="evenodd" clip-rule="evenodd" d="M43 37C43 37.5506 42.5557 38 41.9975 38C41.4456 38 41 37.5506 41 37C41 36.4494 41.4456 36 41.9975 36C42.5557 36 43 36.4494 43 37Z" fill="#4E658E"/>
<path fill-rule="evenodd" clip-rule="evenodd" d="M49 37C49 37.5506 48.5518 38 48 38C47.4494 38 47 37.5506 47 37C47 36.4494 47.4494 36 48 36C48.5518 36 49 36.4494 49 37Z" fill="#4E658E"/>
<path fill-rule="evenodd" clip-rule="evenodd" d="M9 45.0025C9 45.5544 8.55542 46 7.99687 46C7.44458 46 7 45.5544 7 45.0025C7 44.4456 7.44458 44 7.99687 44C8.55542 44 9 44.4456 9 45.0025Z" fill="#4E658E"/>
<path fill-rule="evenodd" clip-rule="evenodd" d="M16 45.0025C16 45.5544 15.5506 46 15 46C14.4494 46 14 45.5544 14 45.0025C14 44.4456 14.4494 44 15 44C15.5506 44 16 44.4456 16 45.0025Z" fill="#4E658E"/>
<path fill-rule="evenodd" clip-rule="evenodd" d="M21 45.0025C21 45.5544 20.5554 46 20.0031 46C19.4446 46 19 45.5544 19 45.0025C19 44.4456 19.4446 44 20.0031 44C20.5554 44 21 44.4456 21 45.0025Z" fill="#4E658E"/>
<path fill-rule="evenodd" clip-rule="evenodd" d="M28 45.0025C28 45.5544 27.5518 46 27 46C26.4494 46 26 45.5544 26 45.0025C26 44.4456 26.4494 44 27 44C27.5518 44 28 44.4456 28 45.0025Z" fill="#4E658E"/>
<path fill-rule="evenodd" clip-rule="evenodd" d="M35 45.0025C35 45.5544 34.5518 46 34 46C33.4494 46 33 45.5544 33 45.0025C33 44.4456 33.4494 44 34 44C34.5518 44 35 44.4456 35 45.0025Z" fill="#4E658E"/>
</svg>
