<svg width="67" height="61" viewBox="0 0 67 61" fill="none" xmlns="http://www.w3.org/2000/svg">
<mask id="mask0" mask-type="alpha" maskUnits="userSpaceOnUse" x="0" y="0" width="67" height="61">
<path fill-rule="evenodd" clip-rule="evenodd" d="M0 0H67V61H0V0Z" fill="white"/>
</mask>
<g mask="url(#mask0)">
<path fill-rule="evenodd" clip-rule="evenodd" d="M41.837 3.01095H26.3574C25.5247 3.01095 24.8499 2.3366 24.8499 1.50489C24.8499 0.674354 25.5247 0 26.3574 0H41.837C42.6699 0 43.3455 0.674354 43.3455 1.50489C43.3455 2.3366 42.6699 3.01095 41.837 3.01095ZM57.3147 19.0778H41.836C41.0031 19.0778 40.3285 18.4035 40.3285 17.572C40.3285 16.7405 41.0031 16.0671 41.836 16.0671H57.3147C58.1476 16.0671 58.8231 16.7405 58.8231 17.572C58.8231 18.4035 58.1476 19.0778 57.3147 19.0778ZM42.5686 25.358H39.6942C38.8613 25.358 38.1867 24.6834 38.1867 23.8529C38.1867 23.0214 38.8613 22.3471 39.6942 22.3471H42.5686C43.4018 22.3471 44.0773 23.0214 44.0773 23.8529C44.0773 24.6834 43.4018 25.358 42.5686 25.358ZM57.3147 25.358H49.5758C48.7429 25.358 48.0671 24.6834 48.0671 23.8529C48.0671 23.0214 48.7429 22.3471 49.5758 22.3471H57.3147C58.1476 22.3471 58.8231 23.0214 58.8231 23.8529C58.8231 24.6834 58.1476 25.358 57.3147 25.358ZM16.8066 22.6044C15.2574 23.5241 14.2173 25.212 14.2173 27.1376C14.2173 30.0446 16.5873 32.4106 19.4996 32.4106C22.4107 32.4106 24.7809 30.0446 24.7809 27.1376C24.7809 24.9379 23.4234 23.048 21.5014 22.2598C20.8129 23.1665 19.9435 23.9256 18.94 24.4877C18.2138 24.8949 17.2941 24.6366 16.8865 23.9117C16.6528 23.4956 16.6379 23.0141 16.8066 22.6044ZM19.4996 35.4206C14.9242 35.4206 11.2021 31.705 11.2021 27.1376C11.2021 22.5712 14.9242 18.8556 19.4996 18.8556C20.0481 18.8556 20.5858 18.909 21.1058 19.0108C21.1362 19.0165 21.1657 19.0219 21.1958 19.0292C24.9604 19.8129 27.7961 23.151 27.7961 27.1376C27.7961 31.705 24.074 35.4206 19.4996 35.4206ZM26.9649 49.0712C26.1319 49.0712 25.4564 48.3968 25.4564 47.5654V47.3605C25.4564 46.529 26.1319 45.8554 26.9649 45.8554C27.7973 45.8554 28.4726 46.529 28.4726 47.3605V47.5654C28.4726 48.3968 27.7973 49.0712 26.9649 49.0712ZM65.4915 56.1965H42.5686C41.7366 56.1965 41.0611 55.5221 41.0611 54.6916C41.0611 53.8601 41.7366 53.1855 42.5686 53.1855H63.9838V9.84317H4.21086V41.5197C4.21086 42.3512 3.53603 43.0255 2.70333 43.0255C1.87017 43.0255 1.19557 42.3512 1.19557 41.5197V8.33805C1.19557 7.50657 1.87017 6.83316 2.70333 6.83316H65.4915C66.3245 6.83316 67 7.50657 67 8.33805V54.6916C67 55.5221 66.3245 56.1965 65.4915 56.1965ZM18.8266 43.9591H20.1723L20.7533 41.1897H18.2451L18.8266 43.9591ZM17.9793 55.7023L19.4996 56.9214L21.0191 55.7023L20.0472 46.97H18.9513L17.9793 55.7023ZM1.50731 61C1.31904 61 1.12748 60.9645 0.941571 60.8887C0.169195 60.5764 -0.202384 59.699 0.111467 58.928L4.27047 48.6937C6.06169 44.2898 9.23625 38.4711 16.2091 38.1898C16.268 38.1825 16.3278 38.179 16.3889 38.179H22.6096C22.6694 38.179 22.7293 38.1825 22.7882 38.1898C29.7619 38.4711 32.9367 44.2898 34.7277 48.6937L35.2642 50.0139L46.4437 39.6994C47.0556 39.1354 48.0101 39.173 48.5754 39.7831C49.1404 40.3942 49.1027 41.3459 48.4915 41.9102L35.7098 53.7023C35.3462 54.0372 34.8411 54.1734 34.3578 54.0659C33.8745 53.9575 33.4749 53.6202 33.289 53.1627L31.9332 49.8255C29.7787 44.5269 27.2926 41.8871 23.8089 41.312L22.9227 45.5376L24.1089 56.192C24.1652 56.7036 23.9562 57.2091 23.554 57.5316L20.9124 59.6504C20.6447 59.8653 20.3115 59.982 19.968 59.982H19.0304C18.6869 59.982 18.3537 59.8653 18.0858 59.6504L15.4442 57.5316C15.042 57.2091 14.8333 56.7036 14.8891 56.192L16.0764 45.5376L15.1893 41.312C11.7058 41.888 9.22046 44.5269 7.06568 49.8255L2.9055 60.0601C2.66823 60.6453 2.10414 61 1.50731 61Z" fill="#4E658E"/>
</g>
</svg>
